<svg width="234" height="234" viewBox="0 0 234 234" fill="none" xmlns="http://www.w3.org/2000/svg">
<path d="M85.8168 46.3994C83.6965 46.2256 80.0424 41.3739 78.6756 39.5474C77.6665 38.2019 67.3667 25.5071 68.6538 24.5114C69.6136 23.7692 94.2722 46.3422 85.8168 46.3994Z" fill="#BFF54E"/>
<path d="M120.947 30.7468C120.679 32.0003 120.216 32.9142 119.377 33.0857C118.357 33.2943 117.384 32.127 117.247 31.211C116.704 27.6768 117.155 10.3131 119.296 10.4813C121.788 10.6798 121.469 28.3092 120.947 30.7468Z" fill="#BFF54E"/>
<path d="M155.734 41.1956C149.585 41.0566 163.665 24.6819 168.516 21.6164C172.685 18.9814 159.729 37.6312 157.967 39.7616C157.722 40.1484 157.394 40.477 157.008 40.7246C156.623 40.9723 156.188 41.133 155.734 41.1956Z" fill="#BFF54E"/>
<path d="M177.123 64.3807C176.799 64.3815 176.481 64.2871 176.21 64.1091C175.939 63.9311 175.725 63.6773 175.597 63.3794C175.469 63.0814 175.431 62.7523 175.488 62.4331C175.545 62.1138 175.695 61.8182 175.918 61.5832C178.423 58.2452 190.541 48.654 191.7 50.0892C192.523 51.1073 180.575 64.5814 177.123 64.3807Z" fill="#BFF54E"/>
<path d="M60.7806 60.1872C55.2237 59.7824 41.383 49.2359 42.3035 48.1113C42.5469 47.8164 42.4314 47.8288 49.3226 51.2508C58.0156 55.571 60.1527 55.423 62.0353 56.7248C64.039 58.1129 63.3808 60.1659 60.7806 60.1872Z" fill="#BFF54E"/>
<path d="M190.074 137.443C187.296 135.822 184.258 134.693 181.096 134.104C175.527 133.286 179.541 138.629 172.403 145.597C169.894 148.047 167.539 147.796 164.706 146.431C161.155 144.717 162.509 140.413 164.537 137.023C167.314 132.38 171.928 131.333 170.242 130.744C144.535 121.762 143.76 121.421 143.734 121.419C142.501 121.307 142.537 120.858 135.213 139.638C134.049 137.084 128.117 130.953 121.414 133.201C115.178 135.293 115.771 140.385 115.683 141.582C115.184 148.337 123.177 154.37 128.865 152.194C130.28 151.652 128.41 153.624 121.288 169.924C119.942 173.009 119.779 173.798 122.383 176.342C126.733 180.628 131.939 183.945 137.659 186.079C144.593 188.658 147.75 183.648 152.046 177.576C165.55 158.506 181.169 160.352 190.666 139.649C190.79 139.471 190.874 139.267 190.911 139.053C190.948 138.839 190.938 138.619 190.882 138.409C190.824 138.199 190.723 138.004 190.584 137.837C190.444 137.67 190.27 137.536 190.074 137.443ZM187.861 140.381C183.68 146.294 182.927 148.439 177.652 152.521C170.914 157.736 162.533 161.807 155.271 169.77C147.365 178.44 146.601 184.994 139.297 183.659C137.42 183.316 128.4 179.197 124.055 174.548C122.917 173.332 122.417 173.315 123.552 170.801C127.419 162.238 136.279 147.378 127.588 149.545C123.391 150.593 118.73 147.191 118.18 142.58C117.12 133.651 129.777 133.977 134.26 141.476C135.015 142.741 135.782 142.383 136.754 141.251C138.349 139.39 143.527 124.554 143.771 123.841C143.862 123.576 144.631 123.953 167.419 131.638C167.631 131.71 167.299 131.618 167.11 131.738C163.038 134.306 157.113 141.437 161.64 147.362C163.827 150.225 169.692 151.464 173.058 148.484C176.214 145.537 178.385 141.688 179.273 137.462C179.595 136.183 179.65 136.065 180.921 136.546C188.675 139.474 188.364 139.666 187.861 140.381Z" fill="#BFF54E"/>
<path d="M141.845 115.774C132.695 115.612 126.449 116.5 126.364 110.484C126.222 106.226 126.304 101.964 126.609 97.7143C127.193 91.2682 125.685 87.5345 128.501 86.0398C130.95 84.7392 131.66 89.5392 139.198 87.9953C147.42 86.3134 143.048 67.8206 129.667 78.5431C129.412 78.7668 129.107 78.9255 128.778 79.0057C128.448 79.0858 128.105 79.0852 127.775 79.0036C127.447 78.9221 127.142 78.7621 126.888 78.5375C126.634 78.3128 126.439 78.0302 126.318 77.7134C124.87 74.0357 124.963 61.6336 125.018 57.6812C125.075 53.6077 126.766 52.6131 138.418 55.5867C170.724 63.8346 176.854 98.7952 173.976 113.013C172.939 118.144 169.503 115.255 163.525 116.552C161.265 117.044 164.351 119.439 164.198 123.131C163.938 129.306 156.58 136.316 149.82 130.465C148.333 129.281 147.325 127.599 146.982 125.73C146.64 123.861 146.986 121.93 147.956 120.296C150.905 114.996 149.885 115.917 141.845 115.774Z" fill="#BFF54E"/>
<path d="M107.7 95.8082C107.7 146.591 109.726 146.04 107.426 146.817C106.569 147.109 105.684 147.526 104.886 146.677C102.756 144.416 98.5252 144.314 95.4215 145.382C88.9553 147.608 90.4196 159.718 99.4861 158.085C103.34 157.391 105.498 154.977 107.256 155.106C109.487 155.27 108.378 155.638 108.75 179.644C108.814 183.849 108.683 183.83 109.527 183.793C123.554 183.194 123.911 183.304 124.293 184.565C124.786 186.295 125.121 188.067 125.295 189.858C125.354 190.38 125.118 190.495 124.67 190.552C113.534 192.087 102.272 192.49 91.0543 191.759C90.2313 191.696 89.9913 191.361 89.933 190.638C89.4363 184.426 89.9196 187.902 84.9536 185.574C78.6118 182.602 79.2262 174.698 78.6746 167.747C76.9243 145.692 44.3576 133.1 64.3876 87.8697C72.8923 68.6605 95.6458 57.7832 105.036 58.65C107.383 58.8675 106.312 59.8957 106.613 83.4049C106.613 83.4401 106.624 83.4745 106.643 83.504C106.662 83.5335 106.689 83.557 106.721 83.5715C106.753 83.5861 106.789 83.5913 106.823 83.5863C106.858 83.5815 106.891 83.5668 106.918 83.544C107.542 82.9923 108.162 82.5113 108.697 81.9955C114.112 76.7727 121.073 79.577 123.525 84.5497C128.167 93.9615 119.582 101.251 113.553 98.6225C108.429 96.3879 107.7 95.0861 107.7 95.8082ZM77.4715 121.252C78.7351 121.166 72.3642 115.803 76.6417 108.799C82.5507 99.1226 99.9514 107.88 93.8731 119.339C93.3484 120.329 93.3876 120.377 94.4752 120.434C97.5945 120.597 100.726 120.277 103.839 120.62C105.555 120.809 104.652 121.674 104.535 95.4853C104.525 93.2674 106.323 91.5889 108.869 93.0858C110.474 94.0847 112.146 94.9726 113.873 95.7431C114.632 96.0323 115.441 96.165 116.253 96.1333C117.065 96.1017 117.861 95.9065 118.596 95.5592C119.33 95.2119 119.986 94.7199 120.525 94.1125C121.065 93.5052 121.476 92.7953 121.734 92.0251C123.799 86.2787 118.146 79.1509 111.969 82.4014C108.745 84.0967 108.592 86.2013 105.52 86.4244C104.044 86.5366 104.357 86.5108 104.418 74.2678C104.488 60.5471 105.064 60.7231 103.617 60.842C95.3789 61.5226 86.4437 67.1647 79.9113 72.2788C60.8332 87.2138 58.4708 123.055 63.1464 122.321C64.5984 122.095 65.1859 122.083 77.4715 121.252ZM62.3346 124.457C66.2746 141.707 81.3061 150.276 82.7032 167.503C83.2414 174.146 82.6651 179.904 87.7387 182.458C93.8866 185.553 100.431 183.788 105.894 183.849C106.733 183.858 106.413 183.875 106.256 177.48C105.808 159.075 105.999 157.9 105.423 158.343C99.1643 163.164 92.2293 161.066 90.0732 156.31C88.0157 151.771 89.3556 146.076 93.6746 143.941C95.4689 143.117 97.4291 142.719 99.4028 142.777C101.376 142.836 103.31 143.349 105.052 144.278C105.465 144.513 105.336 144.339 105.164 135.868C104.899 122.684 105.255 123.208 104.2 123.32C100.263 123.55 96.3138 123.383 92.411 122.82C89.7402 122.179 91.1675 119.846 91.8571 118.155C96.9207 105.759 75.4353 102.38 77.5769 114.987C78.2608 119.018 83.2246 122.658 79.3585 123.347C69.8346 125.046 62.1675 123.704 62.3346 124.457Z" fill="#191919"/>
<path d="M93.2295 210.262C117.493 213.461 124.675 207.295 124.036 209.604C123.229 213.111 121.632 216.389 119.368 219.186C113.674 225.767 97.4802 226.34 93.2295 210.262Z" fill="#191919"/>
<path d="M124.322 194.428C125.233 194.294 125.407 194.548 125.348 195.371C125.101 198.779 125.634 199.272 124.639 199.375C114.269 200.642 103.8 200.89 93.3819 200.114C91.1664 199.98 91.1642 199.987 90.8379 197.826C89.9779 192.124 92.9212 199.018 124.322 194.428Z" fill="#191919"/>
<path d="M93.1063 207.207C92.6096 207.16 92.3886 206.982 92.3023 206.506C91.606 202.641 91.1553 202.394 92.2832 202.477C108.64 203.688 115.982 203.088 124.049 201.719C125.663 201.445 124.996 201.44 124.694 205.852C124.512 208.483 96.118 207.496 93.1063 207.207Z" fill="#191919"/>
</svg>
