<svg width="366" height="440" viewBox="0 0 366 440" fill="none" xmlns="http://www.w3.org/2000/svg">
<path d="M177.675 144.121C177.905 138.814 179.981 136.969 176.982 136.507C169.599 135.123 170.061 132.585 172.83 131.662C174.676 130.97 176.521 130.047 178.367 130.047C181.366 129.816 179.52 128.202 181.135 122.664C182.289 118.05 185.519 122.895 187.826 127.048C188.979 129.355 189.671 127.509 194.055 125.664C195.901 124.972 197.516 125.894 196.131 128.201C191.748 134.892 191.286 131.893 197.746 139.968C200.976 143.89 192.901 141.352 188.749 139.968C185.98 139.045 186.211 139.968 180.905 145.505C180.213 146.197 179.521 147.12 178.598 146.658C177.213 146.197 177.675 145.044 177.675 144.121Z" fill="#EEEDF1"/>
<path d="M249.656 418.899C246.657 418.207 246.426 417.746 246.196 414.747C245.042 395.828 247.119 365.605 251.041 321.077C251.502 314.848 258.424 316.463 269.728 315.079C296.491 312.079 302.028 306.312 310.795 296.852C311.487 295.93 312.41 295.237 312.872 294.315C313.795 292.469 315.179 292.93 316.332 294.315C322.792 302.851 357.399 360.068 365.705 381.524C371.473 396.52 291.185 427.666 249.656 418.899Z" fill="#EEEDF1"/>
<path d="M69.4707 439.202C59.3193 439.433 1.41019 436.664 0.487338 427.667C-3.8962 387.523 22.636 290.623 26.3274 301.698C28.6345 308.388 30.7109 320.155 48.7065 330.998C58.8579 336.997 69.7014 339.534 81.4677 337.458C85.3899 336.766 86.7741 350.147 96.6948 376.448C116.998 430.666 115.613 429.974 111.922 432.05C98.3095 439.664 88.8505 438.741 69.4707 439.202Z" fill="#EEEDF1"/>
<path d="M61.3954 319.693C58.8576 312.541 56.781 298.468 58.8574 298.237C62.3181 298.006 57.704 327.768 78.0068 327.307C143.298 325.461 182.289 316.233 200.053 315.31C220.817 314.156 221.971 313.464 239.044 309.773C245.504 308.388 246.657 305.851 247.119 301.467C247.58 296.622 247.58 296.161 248.272 295.93C251.041 295.238 255.424 310.696 240.428 313.926C224.278 317.386 220.125 318.54 202.36 319.232C191.286 319.693 147.221 327.307 92.0805 330.306C76.392 330.998 65.779 332.152 61.3954 319.693Z" fill="#EEEDF1"/>
<path d="M137.531 81.5972C152.758 82.7507 167.062 88.2876 175.368 100.977C177.905 105.13 177.213 106.052 173.06 106.745C81.4674 119.203 87.0048 118.742 87.4662 114.358C89.5426 98.9006 103.385 88.2876 118.612 83.6733C119.074 83.4426 120.458 83.4426 119.304 82.5198C110.537 74.4448 120.92 58.9873 132.917 61.9866C139.607 63.8323 144.683 72.1379 137.531 81.5972ZM91.1574 114.82C100.617 112.974 172.599 104.438 172.83 103.746C173.291 102.823 167.754 95.4397 157.603 90.5947C132.224 77.9055 98.3097 88.9797 90.2347 113.666C90.2347 114.589 90.0038 115.05 91.1574 114.82ZM137.992 72.5996C137.761 64.7554 128.302 62.4482 122.535 67.9853C115.382 74.9067 120.458 83.9041 125.995 82.5198C129.456 81.5969 133.147 82.0583 133.839 81.3662C135.685 78.5977 137.992 76.291 137.992 72.5996Z" fill="#EEEDF1"/>
<path d="M86.0819 104.208C86.3126 105.823 84.4666 105.361 83.5438 105.592C76.161 106.745 48.2452 112.052 40.6317 114.59C31.8646 117.589 31.1725 123.818 31.4032 134.893C32.0953 171.576 49.1678 228.562 42.7079 220.256C40.6315 217.488 25.6349 148.504 29.3263 124.049C30.9413 113.436 38.5551 111.36 53.7821 108.13C57.9349 107.207 85.6204 101.209 86.0819 104.208Z" fill="#EEEDF1"/>
<path d="M264.653 217.718C266.037 219.333 268.575 221.871 266.729 223.255C263.038 225.793 200.976 149.196 187.826 131.893C183.903 126.586 188.287 129.816 189.21 130.508C204.206 143.428 248.503 199.722 264.653 217.718Z" fill="#EEEDF1"/>
<path d="M219.895 215.411C218.741 247.249 233.968 273.551 258.885 286.932C260.731 287.855 261.884 288.316 261.423 289.47C259.808 293.392 215.05 271.474 216.434 218.411C216.665 209.874 221.048 184.726 219.895 215.411Z" fill="#EEEDF1"/>
<path d="M81.2364 280.242C78.9292 280.472 77.084 258.555 75.9304 252.787C75.6997 251.633 76.1611 250.71 77.5454 250.48C109.384 246.327 109.153 244.942 109.845 248.865C114.229 276.55 115.151 276.089 111.229 276.55C103.846 277.473 86.7735 279.549 81.2364 280.242ZM78.699 254.402C82.3904 277.934 81.4675 277.934 84.0054 277.473C91.6189 276.319 99.0012 275.397 106.615 274.474C110.306 274.012 110.306 274.012 109.614 270.552C106.384 249.787 106.846 250.018 105 250.249C78.468 253.479 78.2376 252.787 78.699 254.402Z" fill="#EEEDF1"/>
<path d="M96.2326 191.186C96.4633 191.186 97.3864 190.955 97.6171 190.955C99.9242 191.185 99.4628 193.724 103.385 217.948C104.077 221.64 104.077 220.717 72.0078 224.64C69.0085 225.101 69.7011 225.101 66.0097 199.26C65.5483 196.261 64.6252 195.339 68.0859 194.877C80.5444 193.262 86.5429 192.339 91.8493 191.647C90.9264 193.723 91.6188 194.416 90.2345 194.877C88.3888 195.569 83.0824 195.8 70.1625 197.415C67.394 197.876 68.3168 197.646 71.7775 220.256C72.2389 222.794 72.008 221.871 96.4635 218.64C101.309 217.948 99.6933 218.64 96.2326 195.8C96.0019 194.877 95.7716 194.185 94.8488 194.415C95.3102 193.031 95.7712 192.108 96.2326 191.186Z" fill="#EEEDF1"/>
<path d="M60.4721 234.33C62.3178 236.406 40.4004 252.325 41.7846 282.318C42.7075 305.389 54.9353 316.925 54.4738 317.617C52.6281 320.616 42.7075 308.158 39.4775 293.853C30.9411 254.632 58.6264 232.253 60.4721 234.33Z" fill="#EEEDF1"/>
<path d="M88.389 138.353C89.5426 140.198 89.0814 139.506 93.2342 165.115C93.6956 168.576 93.003 167.653 61.6261 171.575C59.0883 171.806 59.3192 170.653 57.2428 156.81C55.1664 143.198 54.474 142.275 57.0119 141.813C66.2404 140.66 75.2384 139.275 84.4669 138.122C83.7748 139.968 83.5443 140.89 82.8521 141.583C80.545 142.505 74.7767 142.505 60.0111 144.351C57.2426 144.582 58.3964 144.582 61.857 167.422C62.3185 169.729 62.088 168.806 86.3128 165.576C89.7735 165.115 90.0038 165.115 89.3116 161.885C87.4659 150.811 86.3128 145.505 86.3128 142.967C86.7743 141.583 87.0047 141.352 88.389 138.353Z" fill="#EEEDF1"/>
<path d="M231.661 161.655C230.046 161.655 231.2 156.579 226.355 107.207C224.97 92.672 224.047 93.8255 182.058 96.8248C178.367 97.0555 178.367 94.5177 193.593 93.3641C200.745 92.9027 214.127 91.9796 221.048 93.1331C226.816 94.056 228.2 99.3624 229.815 113.897C234.199 152.426 232.815 161.655 231.661 161.655Z" fill="#EEEDF1"/>
<path d="M298.337 215.872C298.337 229.715 292.8 244.942 290.262 243.327C289.801 243.097 290.031 242.405 290.262 241.943C300.875 214.719 292.338 186.11 278.265 174.575C274.112 171.345 264.653 167.884 264.884 166.961C265.345 164.423 298.106 168.576 298.337 215.872Z" fill="#EEEDF1"/>
<path d="M115.382 203.414C107.768 202.03 109.383 199.261 111.46 198.569C122.765 194.646 116.997 199.261 119.766 189.571C120.458 187.264 121.381 187.033 123.226 188.879C126.226 191.878 126.225 196.261 129.225 194.416C134.993 190.724 136.377 193.032 134.993 194.877C130.148 201.568 130.148 199.03 136.377 207.105C136.838 207.566 137.3 208.028 136.838 208.72C136.377 209.643 135.685 209.182 134.993 209.182C127.84 208.028 125.533 204.798 123.457 207.797C122.303 209.643 120.227 210.797 118.843 212.642C118.381 213.334 117.459 213.796 116.766 213.334C114.229 212.181 119.765 204.106 115.382 203.414Z" fill="#EEEDF1"/>
<path d="M107.769 157.732C107.538 154.041 110.307 150.35 106.846 149.888C98.7713 148.966 99.4632 144.813 108.922 143.428C111.691 142.967 110.076 139.506 111.461 135.815C112.845 131.893 115.844 136.507 117.69 139.968C119.305 142.967 119.766 141.121 124.381 139.044C126.226 138.122 127.61 139.737 126.226 141.583C122.996 146.427 121.842 146.427 123.457 148.273C131.302 157.271 130.148 157.271 118.151 153.118C114.69 151.965 110.999 160.731 108.461 159.809C107.077 159.347 108 158.194 107.769 157.732Z" fill="#EEEDF1"/>
<path d="M276.189 214.95C275.727 236.867 270.421 235.252 270.882 232.253C271.574 226.947 274.804 213.104 269.729 197.646C260.962 171.806 237.66 171.806 238.121 169.269C238.352 166.039 277.111 171.806 276.189 214.95Z" fill="#EEEDF1"/>
<path d="M143.991 150.81C144.222 145.504 146.298 143.658 143.299 143.197C135.916 141.812 136.377 139.275 139.146 138.352C140.992 137.66 142.837 136.737 144.683 136.737C147.682 136.506 145.837 134.891 147.452 129.354C148.605 124.74 151.835 129.585 154.142 133.738C155.296 136.045 155.988 134.199 160.371 132.353C162.217 131.661 163.832 132.584 162.448 134.891C158.065 141.582 157.603 138.582 164.063 146.657C167.293 150.579 159.218 148.042 155.065 146.657C152.296 145.734 152.527 146.658 147.221 152.195C146.529 152.887 145.837 153.81 144.914 153.348C143.529 152.656 143.991 151.733 143.991 150.81Z" fill="#EEEDF1"/>
<path d="M99.9246 175.958C103.847 169.729 104.308 170.652 102.001 177.342C101.309 179.188 95.5411 192.339 87.2354 214.487C84.6976 221.179 82.6214 221.177 72.4701 208.489C71.7779 207.566 72.4698 206.181 73.8541 206.643C74.5462 206.873 74.7767 207.104 81.2367 213.795C82.3902 215.179 82.8519 214.718 83.7747 211.949C88.389 198.106 96.4639 181.726 99.9246 175.958Z" fill="#EEEDF1"/>
<path d="M85.1591 145.735C78.6991 161.655 78.2377 166.269 72.4699 163.5C69.2399 161.885 66.9323 159.578 64.6252 156.579C63.933 155.425 62.3181 154.272 63.4716 153.118C65.548 151.272 67.6244 157.04 72.7001 159.578C75.238 160.962 74.5461 159.578 79.1603 148.735C79.8525 147.351 89.5424 127.278 91.3881 124.048C93.9259 119.665 95.5411 117.819 94.3876 122.895C92.7726 129.585 89.0812 136.507 85.1591 145.735Z" fill="#EEEDF1"/>
<path d="M323.716 195.569C326.023 196.953 327.176 199.26 328.33 201.337C340.096 222.332 311.257 255.094 309.642 278.857C308.95 288.316 311.949 290.393 310.334 291.085C308.027 292.008 306.643 283.933 306.643 281.164C305.951 264.553 316.333 248.634 320.486 239.867C334.79 207.336 323.716 201.567 323.716 195.569Z" fill="#EEEDF1"/>
<path d="M317.025 210.566C316.332 231.792 307.796 241.712 306.643 240.789C305.489 239.866 318.64 220.948 311.949 199.03C306.643 181.265 296.26 177.344 296.722 176.421C297.645 173.191 316.102 183.342 317.025 210.566Z" fill="#EEEDF1"/>
<path d="M114.229 43.7593C113.998 46.7586 111.69 47.22 110.075 46.0664C107.307 43.99 101.078 22.5335 100.386 19.7649C86.3123 -29.6077 110.768 31.5315 114.229 43.7593Z" fill="#EEEDF1"/>
<path d="M25.4043 46.2977C25.8657 45.8363 26.3271 46.298 26.7886 46.5287C38.7856 52.2965 69.9319 63.3705 72.7004 65.9083C74.7768 67.9847 73.3928 70.5223 70.624 69.8302C66.4714 68.4459 25.4043 49.5277 25.4043 46.2977Z" fill="#EEEDF1"/>
<path d="M253.579 30.6077C253.579 32.4534 252.656 29.916 233.276 55.2944C232.353 56.448 227.047 63.1384 225.893 63.8306C223.125 65.6763 220.818 63.5999 222.202 60.8313C224.97 54.8328 250.118 30.377 253.579 30.6077Z" fill="#EEEDF1"/>
<path d="M183.673 13.9973C177.444 47.4506 176.29 49.758 172.83 49.2966C169.6 48.6044 170.522 44.6821 171.445 42.1443C171.676 41.4521 183.903 5.46095 183.673 13.9973Z" fill="#EEEDF1"/>
</svg>
