<svg width="234" height="234" viewBox="0 0 234 234" fill="none" xmlns="http://www.w3.org/2000/svg">
<path d="M163.735 67.3511C162.95 67.5753 137.633 85.66 135.539 87.2488C133.444 88.8376 129.322 94.4494 129.858 94.9618C130.688 95.7557 137.783 93.1869 138.733 92.6364C139.683 92.0858 166.141 73.4036 167.437 72.5077C168.733 71.6118 164.525 67.1279 163.735 67.3511Z" fill="#BFF54E"/>
<path d="M117.042 125.289C105.822 125.933 95.5461 116.992 79.5167 111.976C72.7892 113.147 60.0439 112.499 58.2129 108.346C34.2496 111.896 14.0357 127.071 10.8962 137.274C7.88786 147.037 21.7947 166.332 28.4695 172.634C31.4162 155.877 35.5132 138.034 42.0221 122.29C42.3517 121.492 43.0884 121.981 42.8383 122.752C35.7073 144.714 30.6555 167.297 27.7497 190.204C40.4198 197.695 80.7848 199.444 93.8631 196.24C93.9696 190.711 94.75 172.152 95.4698 157.792C89.8512 157.344 84.2461 156.689 78.6858 155.774C77.7978 155.628 78.1891 154.69 79.0592 154.806C89.516 156.21 110.678 158.669 122.9 155.321C130.412 153.262 145.834 145.342 158.107 108.004C154.557 105.341 148.522 103.043 142.576 102.398C140.952 107.077 122.561 124.972 117.042 125.289Z" fill="#BFF54E"/>
<path d="M111.007 46.3074C117.116 50.5849 122.595 55.6983 127.284 61.4981C128.028 62.3805 128.854 61.6865 129.415 60.9655C136.866 51.3362 140.851 45.6851 150.812 37.4192C151.597 36.7712 150.709 35.8226 149.872 36.4101C143.044 41.1799 132.547 51.2319 128.066 58.3317C123.278 53.1443 117.809 48.6302 111.808 44.9126C110.658 44.2107 109.891 45.5651 111.007 46.3074Z" fill="#BFF54E"/>
<path d="M117.716 45.2513C119.651 45.4755 133.691 44.8824 135.881 44.8431C136.973 44.8229 137.054 43.0783 135.944 43.1209C133.734 43.205 119.573 43.5324 117.589 43.8845C116.776 44.028 116.989 45.1649 117.716 45.2513Z" fill="#BFF54E"/>
<path d="M113.083 87.9507C112.109 87.5111 111.309 88.8376 112.197 89.3881C117.164 92.4844 121.91 95.9245 126.397 99.6834C127.752 100.815 129.418 98.6597 128.079 97.5183C123.554 93.6419 118.506 90.4211 113.083 87.9507Z" fill="#BFF54E"/>
<path d="M141.956 65.3361C142.004 61.155 141.596 56.6733 141.573 52.4664C141.573 51.4012 140.091 51.5795 140.1 52.6436C140.137 57.0994 140.174 61.5519 140.212 66.001C136.866 66.001 121.77 66.4103 118.325 67.0572C117.962 63.2326 117.788 59.3778 117.225 55.5734C117.197 55.4227 117.113 55.288 116.992 55.1949C116.87 55.1019 116.718 55.0571 116.565 55.0692C116.412 55.0813 116.269 55.1494 116.163 55.2604C116.058 55.3715 115.997 55.5177 115.992 55.6709C116.17 59.4069 116.328 63.2237 116.614 66.9597C116.767 68.9477 116.773 68.8153 118.735 68.673C125.525 68.1785 132.438 67.7759 139.246 67.7143C141.21 67.6952 141.926 67.8298 141.956 65.3361Z" fill="#BFF54E"/>
<path d="M133.515 80.611C129.76 80.6592 125.666 80.7175 121.932 81.1424C118.036 81.5909 118.311 81.9183 118.586 85.4301C118.65 86.3535 118.768 87.2723 118.941 88.1816C118.961 88.352 119.044 88.509 119.172 88.6228C119.3 88.7367 119.466 88.7995 119.638 88.7995C119.809 88.7995 119.975 88.7367 120.103 88.6228C120.232 88.509 120.314 88.352 120.335 88.1816C120.335 87.5425 120.024 83.2022 120.11 83.0956C120.197 82.9891 131.987 82.1616 133.246 82.0753C134.331 82.0002 134.597 80.5964 133.515 80.611Z" fill="#BFF54E"/>
<path d="M120.947 97.784C120.909 97.6139 120.811 97.4634 120.67 97.3605C120.529 97.2576 120.356 97.2092 120.183 97.2244C120.009 97.2396 119.847 97.3174 119.726 97.4432C119.606 97.569 119.535 97.7344 119.527 97.9084C119.577 100.233 119.746 102.553 120.033 104.86C120.017 105.078 120.087 105.294 120.23 105.46C120.373 105.626 120.575 105.729 120.793 105.746C120.905 105.755 129.495 105.534 135.778 104.94C137.384 104.788 136.408 103.35 135.467 103.423C131.029 103.759 126.06 103.937 121.604 104.07C121.427 101.911 121.275 99.8527 120.947 97.784Z" fill="#BFF54E"/>
<path d="M82.8186 77.3795C80.6535 77.2472 79.3663 79.918 80.529 80.158C81.1323 80.2824 81.3274 78.7732 82.7211 78.7822C82.8132 78.7886 82.9056 78.7768 82.9932 78.7475C83.0807 78.7181 83.1616 78.6719 83.2313 78.6113C83.3009 78.5507 83.358 78.4769 83.3991 78.3943C83.4403 78.3117 83.4648 78.2217 83.4712 78.1296C83.4776 78.0375 83.4658 77.9451 83.4365 77.8575C83.4071 77.77 83.3609 77.6891 83.3003 77.6194C83.2397 77.5498 83.1659 77.4927 83.0833 77.4516C83.0007 77.4104 82.9107 77.3859 82.8186 77.3795Z" fill="#191919"/>
<path d="M85.8449 74.9834C85.522 74.3331 84.9479 74.8623 85.0993 75.4801C86.0512 79.2823 87.131 81.4003 87.9394 85.6252C88.3745 87.8969 86.299 86.5121 86.2351 88.2882C86.1943 89.604 86.0609 90.9154 85.836 92.2125C84.936 92.0545 84.1127 91.6055 83.4926 90.9343C83.0934 90.4107 82.4016 90.8816 82.7301 91.5824C83.0248 92.1274 83.4465 92.5934 83.9594 92.941C84.4723 93.2886 85.0613 93.5075 85.6767 93.5794C84.958 99.2977 81.9363 99.6251 77.1025 98.625C76.2145 98.4422 75.3254 98.126 74.351 97.9948C73.8801 97.932 72.6691 98.8829 75.8333 99.7698C75.8333 101.306 76.1697 109.143 76.6058 110.581C76.7908 111.184 77.7428 111.112 77.689 110.429C77.4086 106.878 77.2976 103.56 77.2405 100.089C86.8832 102.06 86.7285 96.1582 87.4999 88.5965C89.4879 88.3117 89.5776 86.6668 89.2748 85.0904C88.5965 81.5811 87.4426 78.1807 85.8449 74.9834Z" fill="#191919"/>
<path d="M58.5537 58.7152C55.9748 49.3864 45.9856 39.7302 32.5407 46.7425C19.0958 53.7548 20.8797 72.6243 28.1117 80.611C32.655 85.6263 36.9875 91.5454 36.3215 96.1425C35.6555 100.74 42.7317 96.7457 39.0462 81.684C36.1006 69.6485 45.7198 59.638 53.2457 64.3506C54.6256 62.1401 56.4296 60.2248 58.5537 58.7152Z" fill="#191919"/>
<path d="M71.973 80.9215C73.9811 82.1134 86.4629 72.0434 85.6948 69.7292C79.5279 51.1646 56.5939 55.9793 52.9173 69.2583C48.7922 84.1586 61.0733 95.8453 61.8548 95.7433C62.9906 95.5942 66.564 93.3023 67.8905 88.8375C68.4747 89.1795 69.1393 89.3597 69.8162 89.3597C70.4931 89.3597 71.1578 89.1795 71.742 88.8375C72.5044 88.4036 71.9539 87.538 71.1477 87.8284C69.1833 88.5292 67.0652 86.9404 67.2783 83.5508C67.2831 83.0046 67.4322 82.4694 67.7105 81.9994C67.9888 81.5294 68.3863 81.1413 68.8629 80.8743C69.3395 80.6074 69.8781 80.4712 70.4243 80.4795C70.9704 80.4878 71.5047 80.6403 71.973 80.9215Z" fill="#191919"/>
<path d="M61.2245 97.4735C60.4964 100.833 60.1068 104.257 60.0618 107.694C60.0758 107.836 60.1399 107.969 60.2426 108.068C60.3454 108.168 60.4801 108.228 60.6229 108.237C60.7656 108.247 60.9072 108.206 61.0223 108.121C61.1373 108.036 61.2186 107.913 61.2514 107.773C61.9309 104.503 62.0363 100.975 62.6362 97.5755C62.7786 96.7637 61.377 96.6841 61.2245 97.4735Z" fill="#191919"/>
<path d="M84.1473 81.9049C83.636 80.1266 81.9519 80.0492 82.6123 82.5529C83.2133 84.8201 84.6866 83.7751 84.1473 81.9049Z" fill="#191919"/>
<path d="M138.964 81.6661C139.499 81.1279 143.449 80.8206 143.748 80.7253C144.429 80.5011 144.272 79.4998 143.704 79.2789C142.559 78.8304 139.32 79.474 138.236 80.0638C137.153 80.6536 136.972 82.6303 136.008 84.7058C135.514 85.771 134.851 86.7509 134.42 87.8385C134.21 88.3689 134.85 88.7355 135.308 88.3711C137.491 86.6511 138.937 81.693 138.964 81.6661Z" fill="#191919"/>
<path d="M136.31 90.959C136.161 90.9516 136.014 90.9974 135.895 91.0882C135.777 91.179 135.694 91.3089 135.662 91.4548C135.63 91.6007 135.651 91.7532 135.721 91.8852C135.791 92.0172 135.906 92.1201 136.044 92.1756C143.769 95.0056 143.294 100.156 144.37 101.379C144.602 101.643 146.121 102.209 145.745 100.033C144.987 95.6447 140.792 91.3122 136.31 90.959Z" fill="#191919"/>
<path d="M152.126 85.7755C155.129 93.095 155.277 94.9013 155.082 102.818C155.06 103.706 156.391 104.063 156.626 103.155C157.991 97.8984 156.393 89.4756 153.244 85.0399C152.78 84.3851 151.85 85.1016 152.126 85.7755Z" fill="#191919"/>
<path d="M147.21 88.1099C147.034 90.099 145.778 90.0833 144.547 90.4533C143.008 90.9153 143.881 91.3402 144.547 91.5006C145.059 91.645 145.599 91.6583 146.118 91.5391C146.637 91.4199 147.117 91.1721 147.515 90.8185C147.913 90.4649 148.215 90.0169 148.395 89.5157C148.574 89.0146 148.624 88.4764 148.541 87.9507C148.355 87.0739 147.285 87.2589 147.21 88.1099Z" fill="#191919"/>
<path d="M202.299 60.4363C204.003 60.3421 203.506 57.7318 201.819 57.8271C189.635 58.5178 177.241 57.7823 165.43 58.5201C164.085 58.603 164.321 60.6403 165.542 60.7827C172.585 61.6035 195.421 60.8254 202.299 60.4363Z" fill="#191919"/>
<path d="M222.108 44.1591C207.59 43.6792 176.978 43.8227 163.487 45.2422C162.386 45.3544 162.084 47.3805 163.408 47.3726C178.851 47.2762 204.31 46.2413 222.357 46.812C224.08 46.8681 223.796 44.2152 222.108 44.1591Z" fill="#191919"/>
<path d="M220.307 81.2938C202.724 82.7514 181.65 80.9361 165.626 82.8736C164.357 83.0272 164.676 85.1879 165.981 85.1161C180.287 84.2606 201.482 84.875 220.378 83.9803C222.082 83.894 222.038 81.1502 220.307 81.2938Z" fill="#191919"/>
<path d="M200.062 93.7554C191.842 93.2643 173.65 93.3181 166.761 93.6567C165.474 93.7206 165.288 95.8913 166.628 95.9732C176.888 96.6033 188.088 96.5708 199.91 96.3286C201.305 96.3006 201.597 93.8462 200.062 93.7554Z" fill="#191919"/>
</svg>
