<svg width="240" height="240" viewBox="0 0 240 240" fill="none" xmlns="http://www.w3.org/2000/svg">
<path d="M181.561 166.217C180.517 162.282 177.466 161.387 176.145 160.165C173.978 158.151 174.088 155.825 171.121 144.515C169.389 137.703 167.27 130.995 164.777 124.424C161.086 114.972 155.335 103.839 148.237 96.5515C144.341 92.5518 140.689 90.7049 141.379 91.5731C142.341 92.7852 151.56 98.8331 160.214 117.133C165.792 128.926 169.358 142.152 172.404 155.135C174.284 163.142 177.195 160.841 179.935 164.576C181.213 166.321 181.632 168.474 181.752 167.602C181.75 167.134 181.686 166.668 181.561 166.217Z" fill="#191919"/>
<path d="M164.175 158.255C163.501 159.017 161.109 160.876 160.588 164.079C160.418 165.121 160.606 166.013 160.833 165.574C161.329 163.525 162.404 161.662 163.929 160.206C164.55 159.706 165.108 159.131 165.588 158.494C166.562 157.01 165.89 155.174 165.15 153.581C162.85 148.62 160.275 142.047 156.533 136.061C154.156 132.259 146.946 122.896 142.179 118.804C141.052 117.842 139.861 116.958 138.614 116.159C138.08 115.821 136.905 115.188 137.188 115.699C137.719 116.652 142.086 119.471 148.784 127.781C157.584 138.696 158.164 141.498 163.921 154.076C164.689 155.751 165.239 157.051 164.175 158.255Z" fill="#191919"/>
<path d="M170.485 173.573C170.6 173.793 170.906 173.875 171.187 173.59C171.528 173.253 171.774 172.832 171.9 172.37C172.22 171.272 172.393 170.136 172.414 168.992C172.473 167.688 172.225 166.388 171.689 165.197C171.586 165.045 171.45 164.917 171.291 164.823C171.084 164.751 170.819 164.909 170.777 165.303C170.719 166.453 171.137 167.272 171.099 169C171.051 171.331 170.177 172.982 170.485 173.573Z" fill="#191919"/>
<path d="M173.873 165.125C173.643 165.103 173.413 165.321 173.464 165.692C173.586 166.672 174.236 167.548 174.556 169.174C174.737 170.146 174.788 171.138 174.708 172.124C174.621 172.634 174.663 173.159 174.831 173.649C174.875 173.703 174.931 173.745 174.995 173.771C175.06 173.797 175.13 173.806 175.198 173.798C175.267 173.79 175.333 173.765 175.39 173.724C175.446 173.684 175.491 173.63 175.521 173.567C175.809 173.185 175.983 172.729 176.024 172.252C176.142 171.126 176.081 169.989 175.843 168.882C175.636 167.946 174.808 165.216 173.873 165.125Z" fill="#191919"/>
<path d="M176.893 166.977C178.15 168.792 178.131 170.326 178.693 170.68C178.752 170.714 178.818 170.732 178.886 170.734C178.953 170.737 179.021 170.723 179.082 170.693C179.143 170.664 179.196 170.621 179.237 170.567C179.278 170.513 179.306 170.449 179.317 170.383C179.453 169.952 179.46 169.491 179.335 169.057C179.036 168.038 178.572 167.075 177.962 166.206C177.346 165.322 176.593 164.543 175.73 163.898C175.331 163.697 174.81 163.525 174.685 163.951C174.481 164.61 175.918 165.569 176.893 166.977Z" fill="#191919"/>
<path d="M99.0527 23.0872C95.6303 27.3802 94.0376 34.7218 93.4384 40.2038C90.2932 69.009 115.554 82.2306 113.944 80.1985C112.809 78.7668 98.7457 69.9923 95.2796 53.2724C92.6967 40.8191 96.8896 26.9949 100.513 23.1804C101.656 21.9807 103.138 21.1593 104.761 20.8263C105.515 20.6504 106.977 20.4917 106.397 20.2513C105.537 20.0602 104.646 20.0562 103.785 20.2398C101.927 20.6158 100.255 21.6215 99.0527 23.0872Z" fill="#191919"/>
<path d="M134.696 54.4064C134.428 54.3875 134.158 54.3933 133.891 54.4236C133.517 54.4846 133.306 54.6007 133.523 54.7456C134.18 55.1815 138.782 55.6173 141.374 60.0356C141.866 60.8767 142.212 61.7952 142.396 62.7519C143.118 66.4871 140.801 68.7078 142.856 71.8657C144.676 74.6694 148.261 74.7775 149.393 77.9124C150.405 80.7299 149.032 84.1224 146.805 86.4224C145.392 87.787 143.785 88.9367 142.037 89.8344C140.214 90.9763 146.177 90.1127 149.264 85.446C151.334 82.3284 151.449 79.1417 150.439 76.9636C148.888 73.6148 145.339 73.4803 143.884 71.0043C143.414 70.2288 143.222 69.3161 143.34 68.4168C143.489 66.7873 144.768 63.6673 142.739 59.7918C141.963 58.287 140.819 57.0036 139.412 56.0617C138.005 55.1198 136.383 54.5502 134.696 54.4064Z" fill="#191919"/>
<path d="M131.804 60.2897C131.292 59.978 128.94 60.737 128.369 60.8854C124.866 61.8443 121.244 62.2966 117.614 62.2286C117.073 62.2723 115.849 62.3378 116.048 62.7955C116.288 63.3452 118.388 63.497 118.993 63.497C119.063 63.497 119.361 63.497 119.805 63.4786C119.257 64.2721 118.826 65.14 118.525 66.0558C117.514 69.1838 116.735 72.8764 117.819 75.9757C118.199 77.1352 118.866 78.1799 119.757 79.0128C119.822 79.0805 119.89 79.1446 119.961 79.2049C119.308 81.8913 119.501 81.9327 119.676 82.1328C119.765 82.21 119.873 82.2628 119.989 82.2862C120.105 82.3097 120.226 82.3029 120.338 82.2665C120.451 82.2301 120.552 82.1654 120.632 82.0785C120.713 81.9917 120.769 81.8856 120.797 81.7705C120.81 81.7119 121.002 80.7068 121.125 79.9708C121.183 80.0007 121.24 80.0306 121.288 80.0593C121.799 80.3284 123.552 80.8379 123.374 80.2456C123.067 79.2267 118.267 78.4643 118.625 71.8679C118.825 68.1603 120.139 65.812 120.687 63.4384C123.401 63.3061 128.249 62.6184 130.641 61.4834C132.965 60.3794 130.773 59.4766 133.008 67.016C133.86 69.3931 135.317 72.9834 137.424 74.7038C137.505 74.7756 137.596 74.8367 137.693 74.8855C137.839 74.9487 137.991 74.9372 138.038 74.7854C138.175 74.3864 137.474 73.2145 137.26 72.8523C136.065 70.9375 135.078 68.9003 134.316 66.7757C132.433 61.6179 133.467 56.7051 132.534 57.1306C131.981 57.3836 131.794 59.6181 131.804 60.2897Z" fill="#191919"/>
<path d="M114.879 59.863C114.471 60.016 114.047 60.1198 113.614 60.1724C110.96 60.6105 108.229 60.8969 106.148 62.9324C105.485 63.5965 104.961 64.3859 104.605 65.2546C104.25 66.1232 104.071 67.0539 104.078 67.9924C104.065 68.4259 104.103 68.8595 104.193 69.2838C104.268 69.5702 104.396 69.7266 104.531 69.5529C105.032 68.9124 104.692 66.0753 107.406 63.5729C110.577 61.1671 114.319 61.9767 115.819 60.8129C117.495 59.5134 117.561 57.5929 119.365 55.531C120.73 53.974 122.577 52.919 124.612 52.5341C129.122 51.6693 132.624 54.6581 132.364 53.7082C132.158 52.9573 129.183 50.9413 125.955 51.092C124.116 51.1559 122.324 51.6951 120.756 52.6571C119.1 53.6978 117.751 55.1594 116.846 56.8926C116.454 58.0341 115.777 59.0566 114.879 59.863Z" fill="#191919"/>
<path d="M144.967 85.3229C145.295 84.9288 145.59 84.5084 145.849 84.0659C146.641 82.9123 147.015 81.5221 146.908 80.1265C146.801 78.7309 146.219 77.4142 145.259 76.3954C144.633 75.8101 143.929 75.3146 143.167 74.9234C136.651 71.1422 142.165 65.2209 138.896 60.3184C137.163 58.1127 134.805 58.1415 135.239 58.6187C135.672 59.096 137.166 59.5123 138.044 61.2005C139.539 64.0755 137.946 67.2322 138.721 71.2952C138.896 72.1802 139.268 73.0148 139.808 73.7378C140.027 74.0258 140.263 74.3008 140.515 74.5612C141.527 75.4258 142.616 76.1957 143.768 76.8612C146.354 78.8311 146.003 82.0224 143.926 84.5662C141.555 87.4642 137.706 88.1507 138.552 88.5038C139.311 88.8177 142.756 87.9748 144.967 85.3229Z" fill="#191919"/>
<path d="M133.943 75.8469C134.466 75.8825 134.982 75.7164 135.386 75.3827C135.79 75.049 136.051 74.5731 136.115 74.0529C136.129 73.7447 136.074 73.3629 135.788 73.4779C135.431 73.617 135.284 74.3668 134.48 74.5244C133.636 74.5864 132.793 74.3992 132.056 73.9862C131.553 75.3292 130.799 76.5644 129.835 77.6259C128.779 78.7307 127.401 79.474 125.897 79.75C125.512 79.806 125.124 79.8355 124.735 79.8385C124.735 80.808 124.765 83.7002 124.765 84.074C125.374 84.4063 127.535 85.4896 127.481 84.8042C127.449 84.3971 126.404 83.7002 126.026 83.4242C125.986 83.3943 125.992 83.3943 125.992 83.3943C125.992 83.1528 126.032 84.1338 126.032 81.0633C127.504 80.789 128.886 80.1543 130.054 79.216C131.222 78.2777 132.139 77.0649 132.724 75.6859C133.126 75.7671 133.533 75.8209 133.943 75.8469Z" fill="#191919"/>
<path d="M127.217 65.9155C127.245 65.7677 127.237 65.6157 127.194 65.4716C127.163 65.415 127.12 65.3658 127.069 65.3272C127.017 65.2885 126.958 65.2614 126.895 65.2476C126.832 65.2338 126.766 65.2336 126.703 65.247C126.64 65.2604 126.581 65.2872 126.529 65.3255C126.215 65.5318 125.953 65.8072 125.763 66.1305C125.699 66.2455 123.348 70.3441 123.292 70.4591C123.787 70.7318 124.295 70.9775 124.816 71.1951C125.966 71.4826 126.072 70.6305 125.115 69.96C125.891 68.6519 126.592 67.3017 127.217 65.9155Z" fill="#191919"/>
<path d="M128.029 69.9934C128.985 70.2809 129.305 69.2367 130.513 70.7467C130.582 70.8173 130.667 70.8707 130.761 70.9023C130.855 70.9339 130.955 70.943 131.052 70.9288C131.15 70.9146 131.243 70.8774 131.324 70.8204C131.405 70.7634 131.471 70.6881 131.517 70.6006C131.691 70.0475 131.411 69.7381 131.015 69.2862C129.807 68.0787 127.533 68.6939 127.598 69.4794C127.621 69.5942 127.673 69.7014 127.748 69.7912C127.824 69.881 127.92 69.9505 128.029 69.9934Z" fill="#191919"/>
<path d="M123.87 67.1126C123.803 66.8027 123.675 66.5092 123.494 66.2494C123.312 65.9895 123.081 65.7685 122.813 65.5992C122.239 65.2595 121.571 65.1162 120.908 65.191C120.138 65.4589 120.535 66.3732 121.248 66.4468C121.552 66.4651 121.847 66.5532 122.111 66.7044C122.249 66.8017 122.365 66.9258 122.454 67.0693C122.542 67.2128 122.6 67.3726 122.625 67.5393C122.886 68.6111 124.064 68.3443 123.923 67.3093C123.9 67.2943 123.894 67.2242 123.87 67.1126Z" fill="#191919"/>
<path d="M121.639 75.9286C121.922 76.2734 122.277 76.5517 122.68 76.7435C123.083 76.9353 123.523 77.0359 123.97 77.0383C125.618 77.0935 127.239 75.6284 128.152 74.2576C128.275 73.8482 128.248 73.9644 128.234 73.7022C128.201 73.5221 128.107 73.3592 127.966 73.2422C126.81 72.9156 127.528 73.0858 126.447 73.1433C125.703 73.2086 124.954 73.1129 124.25 72.8627C122.631 72.1957 122.086 71.232 121.726 71.4723C121.194 71.37 120.23 74.1277 121.639 75.9286ZM126.306 74.4566C126.006 74.7861 125.662 75.0728 125.284 75.3087C124.99 75.523 124.645 75.6564 124.283 75.6956C123.921 75.7347 123.555 75.6782 123.222 75.5318C122.211 75.0339 122.147 73.8298 122.06 72.7327C122.566 73.3532 123.221 73.8365 123.963 74.1383C124.705 74.4401 125.511 74.5472 126.306 74.4566Z" fill="#191919"/>
<path d="M122.386 57.2342C123.607 56.8535 124.976 55.2263 128.509 56.1175C128.968 56.2759 129.439 56.3993 129.916 56.4867C130.087 56.51 130.261 56.5038 130.43 56.4683C130.679 56.3648 130.759 56.0497 130.495 55.7679C129.61 54.8226 127.647 54.542 126.377 54.5524C124.966 54.5639 122.678 55.2022 121.959 56.4097C121.852 56.5623 121.776 56.7352 121.738 56.9179C121.738 57.1353 122.004 57.3526 122.386 57.2342Z" fill="#191919"/>
<path d="M97.4761 93.2383C98.6363 94.4418 99.8778 95.5641 101.192 96.5975C101.796 97.0264 102.192 97.2093 101.945 96.8137C101.322 95.8166 98.84 93.6569 95.1796 88.8166C92.2247 84.9335 89.6412 80.7814 87.4631 76.415C80.624 61.9353 80.785 44.0448 85.4 32.4056C88.1381 25.5056 90.0333 24.9398 89.5308 22.0476C89.3434 21.1744 89.2661 20.2812 89.3008 19.3888C89.3653 18.0798 89.7482 16.8064 90.4163 15.6789C90.7119 15.1893 91.0543 14.7294 91.4386 14.3058C91.6808 14.0389 91.989 13.8406 92.3322 13.7308C92.6886 13.6384 93.0628 13.6397 93.4186 13.7344C93.7743 13.8291 94.0996 14.0142 94.3629 14.2715C94.6262 14.5289 94.8185 14.8499 94.9213 15.2035C95.0241 15.557 95.0338 15.9311 94.9496 16.2895C94.8438 16.7323 94.7472 17.1221 95.0646 16.8093C95.4273 16.3909 95.6154 15.8491 95.5901 15.2959C95.5628 14.7337 95.3441 14.1976 94.9702 13.7768C94.615 13.35 94.1449 13.0339 93.6156 12.866C94.9128 12.5716 95.9328 11.9356 97.0035 12.6613C98.4387 14.0137 96.5228 16.5908 96.6125 17.4522C96.6343 17.6592 96.8528 17.7535 97.1668 17.4165C98.5134 15.9744 99.1137 12.9591 97.4646 11.8609C98.3513 11.7344 99.7462 11.4986 100.387 12.2519C101.6 13.6917 98.9665 17.65 99.8647 17.65C100.302 17.65 100.971 16.3654 101.139 15.933C101.313 15.4947 101.452 15.0432 101.554 14.5829C101.878 13.1167 101.71 11.6539 100.338 11.0432C98.9963 10.5926 97.5304 10.6909 96.2606 11.3169C96.0605 11.4319 96.1962 11.4101 95.9742 11.4112C95.0623 11.4112 92.8324 12.069 92.4989 12.7372C91.8015 12.7948 91.1483 13.1018 90.6589 13.602C89.5595 14.6968 88.7594 16.0553 88.3349 17.5476C87.9105 19.04 87.876 20.6163 88.2347 22.1258C88.3774 22.9024 88.2559 23.7044 87.8897 24.4039C85.5537 28.2546 83.7717 32.4152 82.5963 36.763C79.0692 51.0713 80.6861 67.4024 88.0013 80.233C90.6263 84.9325 93.8074 89.2991 97.4761 93.2383Z" fill="#191919"/>
<path d="M92.9888 23.4437C92.4713 24.5213 91.6341 25.0687 91.9722 25.255C92.2551 25.4091 93.4764 24.8352 93.918 23.185C94.096 22.4252 94.1078 21.6359 93.9525 20.8712C93.2774 17.3832 90.8475 15.4581 92.3931 18.7103C93.0566 20.111 93.665 22.0465 92.9888 23.4437Z" fill="#191919"/>
<path d="M107.874 34.3975C111.117 35.2772 111.081 35.2025 111.158 35.4543L111.982 38.5041C112.001 38.5736 112.043 38.6348 112.1 38.6784C112.158 38.7221 112.228 38.7457 112.3 38.7457C112.372 38.7457 112.442 38.7221 112.5 38.6784C112.557 38.6348 112.599 38.5736 112.618 38.5041C113.499 35.2623 113.417 35.2979 113.676 35.2209L116.726 34.3975C116.795 34.3777 116.856 34.336 116.9 34.2785C116.943 34.221 116.966 34.1509 116.966 34.0789C116.966 34.0069 116.943 33.9368 116.9 33.8793C116.856 33.8218 116.795 33.7801 116.726 33.7604C113.483 32.8806 113.52 32.9554 113.443 32.7035L112.618 29.6537C112.599 29.5842 112.557 29.523 112.5 29.4794C112.442 29.4357 112.372 29.4121 112.3 29.4121C112.228 29.4121 112.158 29.4357 112.1 29.4794C112.043 29.523 112.001 29.5842 111.982 29.6537C111.101 32.8956 111.177 32.8588 110.924 32.937L107.874 33.7604C107.805 33.7801 107.744 33.8218 107.701 33.8793C107.657 33.9368 107.634 34.0069 107.634 34.0789C107.634 34.1509 107.657 34.221 107.701 34.2785C107.744 34.336 107.805 34.3777 107.874 34.3975Z" fill="#BFF54E"/>
<path d="M67.3368 44.3001C64.0938 43.4192 64.1306 43.4951 64.0535 43.2421L63.229 40.19C63.2097 40.1205 63.1681 40.0592 63.1107 40.0156C63.0533 39.972 62.9831 39.9484 62.911 39.9484C62.8389 39.9484 62.7688 39.972 62.7113 40.0156C62.6539 40.0592 62.6124 40.1205 62.593 40.19C61.7133 43.433 61.788 43.3962 61.535 43.4732L58.4852 44.2978C58.4158 44.3171 58.3545 44.3586 58.3109 44.4161C58.2673 44.4735 58.2437 44.5436 58.2437 44.6157C58.2437 44.6878 58.2673 44.758 58.3109 44.8154C58.3545 44.8728 58.4158 44.9144 58.4852 44.9337C61.7282 45.8135 61.6914 45.7387 61.7685 45.9917L62.593 49.0415C62.6124 49.111 62.6539 49.1722 62.7113 49.2158C62.7688 49.2595 62.8389 49.2831 62.911 49.2831C62.9831 49.2831 63.0533 49.2595 63.1107 49.2158C63.1681 49.1722 63.2097 49.111 63.229 49.0415C64.111 45.7905 64.034 45.8296 64.287 45.7514L67.3368 44.928C67.405 44.9084 67.4649 44.8672 67.5076 44.8106C67.5503 44.7539 67.5734 44.6849 67.5734 44.614C67.5734 44.5431 67.5503 44.4741 67.5076 44.4174C67.4649 44.3608 67.405 44.3196 67.3368 44.3001Z" fill="#BFF54E"/>
<path d="M133.469 22.0476C136.711 22.9274 136.675 22.8457 136.752 23.1045L137.575 26.1543C137.595 26.2236 137.637 26.2845 137.694 26.3279C137.752 26.3714 137.822 26.3948 137.894 26.3948C137.966 26.3948 138.036 26.3714 138.094 26.3279C138.151 26.2845 138.193 26.2236 138.213 26.1543C139.092 22.9113 139.012 22.9481 139.271 22.871L142.319 22.0476C142.388 22.0279 142.449 21.9862 142.493 21.9287C142.536 21.8712 142.56 21.8011 142.56 21.7291C142.56 21.6571 142.536 21.587 142.493 21.5295C142.449 21.472 142.388 21.4303 142.319 21.4105C139.077 20.5308 139.114 20.6055 139.036 20.3525L138.213 17.3039C138.193 17.2346 138.151 17.1737 138.094 17.1302C138.036 17.0868 137.966 17.0634 137.894 17.0634C137.822 17.0634 137.752 17.0868 137.694 17.1302C137.637 17.1737 137.595 17.2346 137.575 17.3039C136.696 20.5457 136.77 20.5089 136.519 20.5871L133.469 21.4105C133.4 21.4303 133.339 21.472 133.295 21.5295C133.252 21.587 133.228 21.6571 133.228 21.7291C133.228 21.8011 133.252 21.8712 133.295 21.9287C133.339 21.9862 133.4 22.0279 133.469 22.0476Z" fill="#BFF54E"/>
<path d="M66.303 65.8281C66.0385 65.643 65.728 65.6418 65.5785 65.9155C65.4767 66.1753 65.4461 66.4576 65.49 66.7332C65.5827 67.6636 65.3338 68.5959 64.7896 69.3563C64.4415 69.78 63.9562 70.0686 63.4177 70.1722C62.8792 70.2759 62.3215 70.188 61.841 69.9238C61.3605 69.6596 60.9874 69.2357 60.7865 68.7255C60.5855 68.2153 60.5692 67.6509 60.7405 67.1299C60.8745 66.7511 61.0998 66.4112 61.3965 66.1402C61.6931 65.8692 62.052 65.6755 62.4413 65.5763C63.2686 65.4237 64.1223 65.5131 64.9 65.8339C66.4111 66.3376 65.9258 64.3193 63.9478 63.6489C63.0843 63.3959 62.162 63.4306 61.32 63.7478C60.478 64.065 59.7619 64.6474 59.28 65.4072C58.8063 66.1142 58.5459 66.9424 58.5296 67.7932C58.5134 68.644 58.742 69.4816 59.1883 70.2061C59.6346 70.9306 60.2798 71.5116 61.047 71.8799C61.8141 72.2481 62.671 72.3881 63.5154 72.2831C67.1253 71.8058 68.4006 67.506 66.303 65.8281Z" fill="#BFF54E"/>
<path d="M136.215 39.3275C136.75 39.1654 137.322 39.1759 137.85 39.3574C137.977 39.4034 138.093 39.4425 138.154 39.462C138.657 39.6299 138.791 39.1021 138.463 38.7145C138.107 38.2784 137.608 37.9824 137.054 37.8786C136.5 37.7749 135.928 37.8701 135.438 38.1476C134.997 38.3716 134.619 38.7029 134.339 39.1109C134.059 39.5189 133.886 39.9907 133.836 40.4829C133.786 40.9751 133.861 41.472 134.053 41.9279C134.245 42.3839 134.548 42.7844 134.935 43.0926C135.304 43.388 135.74 43.5892 136.204 43.6788C136.669 43.7684 137.148 43.7437 137.601 43.6068C138.053 43.47 138.466 43.2251 138.803 42.8933C139.14 42.5615 139.391 42.1527 139.535 41.7022C139.644 41.3608 139.683 41.001 139.65 40.6442C139.615 40.423 139.546 40.2085 139.445 40.0083C139.007 39.1331 138.44 39.1814 138.44 39.7679C138.513 40.3699 138.411 40.98 138.148 41.5263C138.039 41.7237 137.889 41.8959 137.709 42.0318C137.529 42.1677 137.323 42.2643 137.103 42.3152C136.714 42.4088 136.305 42.3497 135.958 42.1502C135.612 41.9506 135.355 41.6257 135.241 41.2426C135.128 40.8594 135.165 40.4471 135.346 40.0908C135.527 39.7345 135.838 39.4612 136.215 39.3275Z" fill="#BFF54E"/>
<path d="M77.963 24.3488C77.9097 24.4843 77.8938 24.6317 77.917 24.7754C77.9929 25.7667 77.4397 26.6511 76.5266 26.5867C76.2615 26.5673 76.01 26.4617 75.8105 26.2861C75.6109 26.1105 75.4742 25.8745 75.4212 25.614C75.3682 25.3535 75.4017 25.0829 75.5168 24.8432C75.6319 24.6036 75.8222 24.4082 76.0586 24.2867C76.5599 24.0903 77.1184 24.099 77.6134 24.3108C77.9032 24.4477 78.1412 24.3258 78.0573 23.9888C77.8588 23.6152 77.531 23.3266 77.1352 23.1772C76.7394 23.0278 76.3027 23.0277 75.9068 23.1769C75.5856 23.2817 75.2913 23.4558 75.0448 23.6868C74.7983 23.9179 74.6055 24.2002 74.4802 24.514C74.3548 24.8277 74.2998 25.1651 74.3192 25.5024C74.3386 25.8397 74.4318 26.1686 74.5923 26.4659C74.815 26.8775 75.1589 27.2107 75.5773 27.4202C75.9957 27.6298 76.4684 27.7056 76.9314 27.6375C77.3944 27.5693 77.8252 27.3604 78.1654 27.0392C78.5057 26.7179 78.7389 26.2998 78.8335 25.8415C79.0267 24.7237 78.201 23.9325 77.963 24.3488Z" fill="#BFF54E"/>
<path d="M131.605 133.905C125.319 134.043 109.096 134.045 103.955 130.47C103.955 130.47 104.54 121.134 103.4 116.128C102.069 110.29 99.1815 100.471 106.712 92.339C114.909 83.484 115.131 80.4618 115.131 80.4618L118.765 82.4168C118.765 82.4168 117.088 90.2368 128.824 85.7702L139.44 90.2391C139.44 90.2391 127.428 98.6226 135.806 116.229L136.367 132.99C134.842 133.561 133.232 133.87 131.605 133.905Z" fill="#BFF54E"/>
<path d="M129.812 88.0035C129.697 87.5067 128.49 88.0242 126.341 88.5877C124.327 89.1167 121.221 89.7021 119.441 88.6521C119.146 88.4931 118.874 88.2925 118.636 88.0564C117.801 87.3798 117.245 86.4186 117.075 85.3574C116.989 84.6321 116.978 83.9 117.041 83.1724C117.012 82.7032 116.549 82.6204 116.246 83.5174C116.039 84.1523 115.971 84.8246 116.048 85.4881C116.125 86.1517 116.344 86.7908 116.69 87.3618C118.637 90.6048 121.895 90.79 125.599 89.8918C126.708 89.6499 127.787 89.2898 128.819 88.8177C129.145 88.6636 129.89 88.329 129.812 88.0035Z" fill="#191919"/>
<path d="M114.167 112.879C113.881 112.419 111.522 107.899 111.088 107.424C110.979 107.289 110.847 107.176 110.697 107.09C110.415 106.975 110.148 107.205 110.237 107.657C110.409 108.497 110.661 108.829 112.936 113.002C113.29 113.653 114.086 115.115 114.546 114.521C114.801 114.187 114.356 113.227 114.167 112.879Z" fill="#191919"/>
<path d="M179.393 197.157C178.796 194.497 176.173 190.206 174.702 188.178C174.42 187.68 174.005 187.27 173.505 186.992C172.028 186.206 170.912 186.962 169.918 187.36C169.567 187.529 169.222 187.705 168.877 187.886C168.692 187.706 168.451 187.593 168.194 187.565C167.937 187.538 167.678 187.597 167.458 187.734C163.371 190.294 154.862 188.999 150.411 187.95C143.281 186.263 138.603 178.895 138.12 171.885C137.545 163.63 140.62 154.98 138.382 146.851C138.12 145.899 134.205 134.309 132.85 134.661C125.179 136.672 116.388 137.433 108.757 135.152C107.829 134.903 106.934 134.548 106.087 134.094C105.839 133.759 106.081 133.289 105.964 132.721C105.945 132.6 105.903 132.483 105.841 132.376C105.739 132.261 105.532 132.273 105.416 132.529C105.203 133.068 105.098 133.644 105.105 134.223C105.048 134.959 104.883 135.073 103.055 138.363C98.2249 147.054 92.5772 155.084 90.3198 164.91C85.9371 183.986 90.789 208.418 110.352 217.097C111.38 217.557 122.246 221.882 123.28 220.556C125.177 221.438 125.402 221.446 125.489 221.724C125.598 222.16 123.561 227.686 125.693 229.01C125.926 229.143 126.186 229.225 126.454 229.251C126.722 229.276 126.993 229.243 127.247 229.156C130.264 228.338 131.732 220.356 132.143 217.237C132.252 216.555 132.112 215.857 131.747 215.271C131.382 214.685 130.817 214.251 130.157 214.048C130.042 214.007 128.73 213.51 127.656 213.243C127.691 213.095 127.696 212.942 127.669 212.792C127.642 212.643 127.585 212.5 127.5 212.374C127.416 212.248 127.306 212.14 127.178 212.059C127.05 211.977 126.906 211.922 126.756 211.899C117.587 210.503 110.492 199.578 108.517 191.218C108.035 189.803 107.764 188.325 107.712 186.831C106.993 181.743 107.325 176.561 108.688 171.606C110.014 167.615 111.777 163.783 113.945 160.179C114.405 159.337 118.146 153.864 118.34 156.895C119.07 168.395 118.713 181.31 126.255 190.909C134.09 200.881 147.576 203.288 159.222 199.951C160.198 199.672 166.898 198.141 170.1 196.493C170.154 196.475 172.457 195.694 172.515 195.682C172.585 195.669 172.657 195.675 172.724 195.7C172.79 195.725 172.849 195.767 172.894 195.822C173.023 195.951 175.194 200.56 177.364 200.875C178.57 201.043 180.003 199.87 179.393 197.157ZM92.9015 187.483C92.8463 187.949 92.5565 188.058 92.3587 187.916C91.2559 187.15 90.9971 180.326 91.0385 178.936C91.0523 178.444 91.2133 177.062 91.686 176.932C91.832 176.892 91.9919 176.955 92.0839 177.224C92.4059 178.17 92.1069 178.576 92.3645 182.009C92.5899 185.016 93.0499 186.229 92.9015 187.483ZM127.096 214.269C128.299 214.892 129.044 215.214 129.759 215.534C129.963 215.626 130.141 215.766 130.278 215.942C130.415 216.118 130.508 216.325 130.548 216.545C130.688 217.465 128.807 227.043 126.68 227.597C126.649 227.601 126.618 227.601 126.587 227.597H126.555C126.492 227.512 126.449 227.412 126.43 227.308C126.062 225.776 127.105 222.395 127.136 222.044C127.183 221.602 127.086 221.156 126.86 220.773C126.634 220.39 126.29 220.09 125.88 219.918C125.701 219.828 124.336 219.201 124.139 219.113L127.096 214.269ZM130.582 191.561C130.54 191.719 130.4 191.827 130.144 191.753C129.887 191.68 129.64 191.576 129.408 191.444C127.342 189.819 125.766 187.653 124.858 185.187C124.677 184.697 124.412 183.436 124.829 183.172C124.88 183.143 124.938 183.128 124.997 183.13C125.055 183.132 125.112 183.151 125.161 183.183C125.87 183.595 125.81 185.777 128.691 189.13C129.61 190.086 130.727 191.041 130.582 191.561ZM177.711 199.151C177.688 199.168 177.665 199.215 177.646 199.221C177.646 199.221 177.627 199.233 177.627 199.244C177.972 199.244 177.011 199.785 174.603 195.47C174.492 195.242 174.362 195.023 174.217 194.816C173.912 194.427 173.481 194.157 172.998 194.052C172.515 193.947 172.011 194.013 171.572 194.241C171.169 193.254 170.234 190.957 169.446 189.036C170.286 188.693 171.154 188.422 172.04 188.224C172.228 188.219 172.415 188.254 172.588 188.328C172.762 188.401 172.917 188.511 173.044 188.65C174.315 190.426 175.46 192.289 176.473 194.223C176.843 194.949 178.42 198.054 177.711 199.151Z" fill="#191919"/>
<path d="M142.687 90.9832C154.809 96.6562 165.384 122.659 168.171 129.997C170.231 118.258 167.509 110.736 160.716 101.99C159.308 100.436 158.01 98.7864 156.831 97.0529C154.613 93.1567 154.812 87.7713 151.048 83.6462C147.689 91.25 142.687 90.9832 142.687 90.9832Z" fill="#BFF54E"/>
<path d="M109.265 60.2713C110.036 60.1437 110.702 59.9919 111.292 59.8332C107.089 59.1664 102.783 59.6157 98.8079 61.1361C99.5669 62.8186 101.338 66.4997 102.948 68.1005C102.834 67.1692 102.907 66.2244 103.165 65.3222C103.423 64.42 103.86 63.5789 104.449 62.8486C105.038 62.1183 105.768 61.5139 106.595 61.0712C107.423 60.6285 108.33 60.3565 109.265 60.2713Z" fill="#BFF54E"/>
<path d="M137.307 118.453L137.873 134.045C137.068 134.045 137.758 133.899 134.263 134.951C137.055 138.923 138.977 143.44 139.905 148.205C140.833 152.97 140.746 157.878 139.65 162.607C146.729 162.582 154.325 158.957 160.611 149.253C155.534 137.334 141.24 121.628 137.949 118.184C137.898 118.128 137.83 118.09 137.756 118.074C137.682 118.058 137.604 118.065 137.534 118.094C137.464 118.124 137.405 118.174 137.364 118.238C137.324 118.302 137.304 118.377 137.307 118.453Z" fill="#BFF54E"/>
<path d="M103.698 131.784L102.19 130.879C102.366 128.349 102.411 125.802 102.372 123.267C102.235 114.421 100.917 114.459 100.221 110.426C99.5426 106.484 100.728 102.213 100.706 99.1161C100.697 97.7361 100.203 97.9925 97.1725 94.9324C92.2711 89.8249 88.0901 84.0719 84.7456 77.833C82.533 86.458 86.3475 93.7709 83.2908 100.833C81.8464 104.175 79.0439 106.698 76.7243 109.497C67.7785 120.32 64.4665 138.362 76.5323 146.77C81.4692 150.211 87.0847 151.817 92.492 153.9C95.8607 147.225 99.6018 140.745 103.698 134.49V131.784Z" fill="#BFF54E"/>
</svg>
