<svg width="387" height="387" viewBox="0 0 387 387" fill="none" xmlns="http://www.w3.org/2000/svg">
<path fill-rule="evenodd" clip-rule="evenodd" d="M265.779 50.438C266.026 50.2258 266.176 49.9245 266.2 49.6005C266.224 49.2766 266.119 48.9565 265.905 48.7106C265.694 48.4647 265.394 48.3132 265.069 48.2893C264.745 48.2656 264.426 48.3714 264.179 48.5836C251.569 59.7451 229.215 78.9731 210.128 100.395C209.907 100.64 209.794 100.963 209.809 101.292C209.825 101.622 209.97 101.932 210.213 102.155C212.815 104.512 213.078 96.3226 265.779 50.438Z" fill="#0357C6"/>
<path fill-rule="evenodd" clip-rule="evenodd" d="M217.707 82.934C219.885 80.8478 241.53 60.4126 260.023 44.0756C260.142 43.9675 260.239 43.8369 260.307 43.6915C260.376 43.5463 260.415 43.3889 260.422 43.2285C260.43 43.0681 260.405 42.9079 260.35 42.7567C260.296 42.6058 260.213 42.4669 260.103 42.3482C259.996 42.2294 259.866 42.1331 259.719 42.0649C259.575 41.9966 259.417 41.9575 259.258 41.9501C259.096 41.9425 258.937 41.9668 258.785 42.0213C258.634 42.0756 258.495 42.1595 258.377 42.2676C243.189 56.5055 233.617 63.3351 215.96 81.1594C215.843 81.274 215.75 81.4105 215.687 81.561C215.622 81.7116 215.589 81.8733 215.589 82.0369C215.587 82.2002 215.619 82.3625 215.68 82.514C215.741 82.6655 215.832 82.8035 215.945 82.9201C216.06 83.0366 216.197 83.1293 216.347 83.1931C216.498 83.2569 216.659 83.2904 216.824 83.2917C216.987 83.293 217.148 83.262 217.3 83.2007C217.453 83.1393 217.59 83.0486 217.707 82.934Z" fill="#0357C6"/>
<path fill-rule="evenodd" clip-rule="evenodd" d="M320.617 321.612C319.521 321.512 313.55 321.464 304.586 321.449L306.55 14.207C305.967 13.6321 306.524 13.9678 81.1372 18.9931C80.8166 19.0004 80.5114 19.133 80.2872 19.3623C80.063 19.5919 79.9375 19.8999 79.9375 20.2207L79.8911 220.252C81.8185 219.006 83.4845 217.397 84.7959 215.514C86.8357 212.227 87.9484 207.561 90.6409 204.664L90.6038 161.693C91.3957 161.693 134.738 160.964 181.35 160.18C178.755 157.376 177.13 153.813 176.714 150.016C175.679 150.04 174.859 150.062 174.303 150.079C174.494 149.336 174.839 148.643 175.315 148.042C175.792 147.442 176.39 146.949 177.07 146.595C177.271 145.935 177.632 145.335 178.121 144.848C178.872 144.134 180.426 144.291 180.854 143.457C180.968 143.236 181.069 143.008 181.159 142.776C176.024 143.42 172.287 145.002 171.746 150.151C170.969 150.172 92.3284 151.405 90.589 151.466V30.0155C97.4502 29.8802 286.849 25.2943 296.276 25.0328L295.596 148.163C294.315 148.202 283.526 148.384 270.215 148.595C272.214 153.046 266.907 154.769 266.378 158.754C283.366 158.472 294.721 158.286 295.531 158.285L295.082 213.404C295.915 213.671 296.64 214.2 297.148 214.912C297.656 215.622 297.923 216.479 297.906 217.354C298.027 219.479 296.493 221.126 295.004 222.656L294.53 278.361C295.342 280.666 295.329 281.829 294.489 283.105L294.148 321.444L263.55 321.351C262.874 321.969 262.325 322.712 261.937 323.543C260.37 326.929 262.883 333.959 257.696 334.602C255.1 334.923 253.331 332.843 250.937 332.811C249.767 332.796 248.868 333.94 247.64 333.966C246.119 333.707 244.617 333.351 243.141 332.9C241.936 332.778 241.011 333.866 239.763 333.864C238.066 333.864 236.664 332.655 235.025 332.446C233.443 332.244 232.232 333.297 230.574 332.412C227.251 330.647 228.022 324.874 229.018 321.245C170.665 321.06 93.7544 320.819 90.6316 320.769C90.6316 318.868 90.6446 313.498 90.6483 305.778C89.8018 302.086 89.8018 298.251 90.6483 294.559V284.506C89.5272 282.914 88.8629 281.042 88.7272 279.099C88.4064 275.947 89.7582 276.609 90.6502 275.993V251.345C88.7558 252.441 86.8027 253.431 84.7996 254.312C83.2004 255.129 81.5589 255.86 79.8818 256.504V320.737C75.4076 320.683 70.9378 321.045 66.5303 321.818V321.798C61.2825 323.166 58.334 332.182 65.1155 336.14C68.0101 337.822 89.558 336.325 102.457 336.444C121.817 336.538 306.103 337.371 306.893 337.345C313.578 337.059 325.309 339.481 325.785 330.048C325.995 325.722 324.949 322.006 320.617 321.612Z" fill="#0357C6"/>
<path fill-rule="evenodd" clip-rule="evenodd" d="M266.332 151.515C265.195 150.246 263.634 149.436 261.943 149.238C258.51 148.327 253.937 149.225 251.111 147.582C247.019 145.189 244.478 139.523 240.775 136.123C233.205 129.593 223.548 125.986 213.551 125.954C210.575 125.886 207.622 126.501 204.921 127.751C202.219 129.002 199.84 130.856 197.965 133.169C196.667 134.862 196.025 137.536 194.534 138.733C193.173 139.828 190.929 137.854 188.671 137.511C188.116 137.384 187.539 137.389 186.987 137.526C186.434 137.662 185.921 137.926 185.489 138.296C185.057 138.666 184.717 139.132 184.496 139.656C184.276 140.181 184.181 140.75 184.22 141.318C184.238 142.809 184.437 144.293 184.812 145.737C182.69 145.143 180.068 144.828 179.317 146.934C178.642 149.179 178.826 151.594 179.835 153.71C181.174 156.692 183.302 159.253 185.987 161.117C186.349 162.862 187.211 164.465 188.468 165.728C189.725 166.991 191.324 167.861 193.067 168.23C191.514 172.571 191.057 177.229 191.736 181.789C192.724 187.261 195.413 192.283 199.422 196.138C209.308 204.991 223.359 202.096 233.265 193.19C236.2 195.018 239.685 195.756 243.11 195.274C244.469 195.129 245.778 194.682 246.944 193.968C248.109 193.255 249.103 192.29 249.85 191.146C250.598 190.002 251.082 188.706 251.267 187.352C251.452 185.996 251.334 184.619 250.922 183.315C250.968 183.309 251.015 183.302 251.059 183.291C253.051 182.978 254.874 181.985 256.216 180.483C257.561 178.98 258.343 177.058 258.434 175.045C258.343 174.001 258.189 172.964 257.972 171.939C257.844 170.78 258.176 171.117 259.521 169.88C265.596 164.245 261.409 161.536 261.436 160.065C264.466 157.896 268.329 154.639 266.332 151.515ZM199.606 155.079C197.431 158.57 195.525 162.223 193.904 166.005C180.938 164.29 193.08 143.628 199.606 155.079ZM214.747 199.003C202.458 199.263 192.068 187.55 194.013 174.42C195.311 165.721 201.757 158.083 206.406 148.477C210.541 153.54 217.28 157.083 221.797 152.344C222.287 151.826 222.76 150.875 223.346 150.152C223.52 149.935 223.667 149.649 223.934 149.801C226.344 151.099 228.28 155.198 231.907 159.062C233.391 160.644 234.963 162.138 236.497 163.674C239.01 166.52 241.91 169 245.11 171.041C238.624 190.026 225.274 198.84 214.747 199.003ZM242.704 193.18C241.379 193.453 240.011 193.446 238.689 193.158C237.368 192.871 236.12 192.309 235.028 191.511C238.105 188.379 240.782 184.878 243.002 181.09C243.163 181.157 243.336 181.188 243.508 181.183C243.683 181.179 243.851 181.138 244.009 181.064C244.586 180.841 245.216 180.797 245.819 180.936C246.423 181.077 246.97 181.392 247.391 181.845C250.863 185.44 247.629 192.036 242.704 193.18Z" fill="#111010"/>
<path fill-rule="evenodd" clip-rule="evenodd" d="M217.725 181.366C217.466 181.155 214.51 175.551 214.046 174.414C213.905 174.122 213.653 173.898 213.347 173.792C213.041 173.685 212.705 173.705 212.414 173.846C212.121 173.987 211.897 174.238 211.791 174.544C211.684 174.851 211.704 175.187 211.845 175.478C215.954 183.556 216.344 184.315 217.827 184.632C218.118 184.641 218.408 184.574 218.665 184.435C218.921 184.298 219.138 184.094 219.29 183.845C220.681 181.991 220.08 181.991 225.825 171.15C226.196 170.451 226.487 169.717 226.825 168.999C226.904 168.856 226.952 168.699 226.971 168.536C226.99 168.374 226.975 168.209 226.93 168.052C226.884 167.895 226.808 167.749 226.706 167.621C226.604 167.493 226.478 167.387 226.335 167.308C226.192 167.229 226.035 167.179 225.871 167.161C225.71 167.143 225.545 167.157 225.387 167.203C225.232 167.248 225.085 167.324 224.957 167.426C224.829 167.528 224.724 167.654 224.644 167.798C223.589 169.474 218.893 178.501 217.725 181.366Z" fill="#111010"/>
<path fill-rule="evenodd" clip-rule="evenodd" d="M206.256 179.627C206.636 180.769 207.2 181.841 207.925 182.801C209.215 184.908 211.005 186.662 213.136 187.91C213.265 188.012 213.414 188.088 213.573 188.133C213.733 188.177 213.898 188.188 214.063 188.168C214.226 188.148 214.384 188.096 214.528 188.012C214.671 187.931 214.795 187.821 214.897 187.69C214.997 187.558 215.07 187.41 215.112 187.248C215.155 187.089 215.164 186.924 215.142 186.759C215.118 186.595 215.064 186.438 214.979 186.297C214.895 186.154 214.784 186.03 214.651 185.932C214.094 185.444 213.569 184.914 213 184.422C211.587 183.204 208.353 180.953 208.448 177.338C208.487 177.055 208.451 176.764 208.344 176.497C208.238 176.231 208.064 175.996 207.841 175.815C207.617 175.635 207.35 175.516 207.066 175.469C206.782 175.422 206.493 175.449 206.222 175.547C205.542 175.961 204.963 176.521 204.528 177.188C204.092 177.854 203.812 178.611 203.706 179.399C202.975 182.998 203.623 186.742 205.52 189.887C205.711 190.148 205.998 190.325 206.319 190.373C206.64 190.423 206.966 190.343 207.227 190.152C207.489 189.961 207.663 189.674 207.713 189.353C207.763 189.034 207.684 188.706 207.493 188.444C206.458 187.352 205.787 185.969 205.568 184.48C205.343 182.829 205.583 181.149 206.256 179.627Z" fill="#111010"/>
<path fill-rule="evenodd" clip-rule="evenodd" d="M211.715 160.728C215.637 160.598 219.222 162.334 218.254 166.139C218.222 166.455 218.315 166.772 218.511 167.021C218.708 167.271 218.995 167.434 219.311 167.476C219.626 167.517 219.945 167.435 220.201 167.245C220.457 167.055 220.627 166.773 220.679 166.46C220.64 160.118 215.214 156.804 211.235 158.284C210.92 158.357 210.647 158.549 210.471 158.82C210.295 159.092 210.232 159.42 210.295 159.738C210.356 160.055 210.539 160.335 210.805 160.52C211.07 160.704 211.396 160.779 211.715 160.728Z" fill="#111010"/>
<path fill-rule="evenodd" clip-rule="evenodd" d="M228.401 173.719C228.642 173.66 228.887 173.678 229.12 173.617C233.339 172.532 235.032 174.975 234.057 177.314C233.981 177.624 234.027 177.952 234.188 178.227C234.35 178.503 234.611 178.703 234.919 178.789C235.227 178.874 235.555 178.835 235.835 178.681C236.115 178.527 236.323 178.271 236.415 177.965C236.671 176.81 236.584 175.605 236.165 174.499C235.744 173.392 235.01 172.433 234.051 171.739C233.092 171.045 231.952 170.647 230.769 170.593C229.588 170.54 228.416 170.833 227.398 171.438C227.244 171.502 227.106 171.595 226.99 171.713C226.873 171.831 226.78 171.971 226.719 172.125C226.658 172.279 226.628 172.444 226.63 172.61C226.634 172.775 226.669 172.939 226.736 173.091C226.802 173.242 226.899 173.379 227.019 173.493C227.14 173.607 227.281 173.696 227.436 173.755C227.59 173.813 227.755 173.84 227.922 173.834C228.087 173.828 228.251 173.789 228.401 173.719Z" fill="#111010"/>
<path fill-rule="evenodd" clip-rule="evenodd" d="M192.609 175.421C187.331 172.89 181.707 171.154 175.92 170.271C168.553 168.963 161.118 168.074 153.651 167.607C147.199 167.023 140.707 167.047 134.26 167.677C120.373 168.88 106.636 171.43 93.2428 175.291C92.934 175.389 92.6768 175.606 92.5281 175.894C92.3792 176.183 92.3508 176.517 92.4491 176.827C92.5476 177.136 92.7645 177.392 93.0525 177.541C93.3405 177.691 93.6758 177.719 93.9845 177.62C107.022 173.183 120.645 170.703 134.41 170.258C137.859 170.099 150.53 169.954 153.51 170.073C169.25 170.661 185.657 174.894 191.499 177.667C191.794 177.796 192.128 177.808 192.43 177.698C192.733 177.587 192.981 177.363 193.123 177.073C193.264 176.784 193.288 176.45 193.188 176.144C193.089 175.837 192.875 175.58 192.591 175.428L192.609 175.421Z" fill="#111010"/>
<path fill-rule="evenodd" clip-rule="evenodd" d="M250.848 251.384C248.777 247.732 247.23 243.807 246.255 239.723C245.081 233.767 245.049 227.644 246.162 221.677C247.288 215.685 249.437 217.86 249.72 221.231C249.589 225.882 249.93 230.533 250.742 235.113C250.777 235.269 250.844 235.417 250.937 235.549C251.03 235.681 251.148 235.792 251.284 235.877C251.419 235.963 251.571 236.02 251.729 236.048C251.888 236.074 252.05 236.07 252.207 236.033C252.363 235.998 252.511 235.933 252.641 235.838C252.773 235.746 252.884 235.629 252.969 235.493C253.055 235.356 253.114 235.206 253.14 235.047C253.168 234.889 253.162 234.726 253.127 234.57C251.935 230.183 251.48 225.628 251.783 221.092C251.658 219.123 250.818 217.267 249.42 215.872C248.2 214.945 246.507 215.045 245.079 217.265C241.062 223.509 243.008 241.018 246.067 248.003C246.822 249.657 247.721 251.241 248.754 252.737C248.934 253.015 249.216 253.21 249.539 253.279C249.863 253.349 250.201 253.286 250.479 253.106C250.755 252.928 250.95 252.645 251.02 252.322C251.089 251.999 251.028 251.662 250.848 251.384Z" fill="#111010"/>
<path fill-rule="evenodd" clip-rule="evenodd" d="M255.337 238.588C255.838 238.588 256.326 238.67 256.821 238.683C261.642 238.811 268.318 241.587 269.907 247.521C269.963 247.671 270.046 247.81 270.156 247.929C270.263 248.048 270.393 248.142 270.54 248.211C270.684 248.279 270.842 248.316 271.003 248.324C271.163 248.331 271.324 248.307 271.474 248.252C271.624 248.196 271.763 248.112 271.882 248.003C272.001 247.895 272.095 247.766 272.164 247.619C272.233 247.475 272.27 247.317 272.277 247.156C272.285 246.996 272.26 246.835 272.205 246.685C268.587 238.711 263.304 236.115 257.37 235.903C256.611 235.9 255.855 235.966 255.109 236.105C254.946 236.12 254.788 236.167 254.642 236.243C254.497 236.319 254.369 236.422 254.264 236.549C254.052 236.803 253.95 237.129 253.98 237.459C254.01 237.789 254.169 238.091 254.423 238.305C254.677 238.516 255.007 238.618 255.337 238.588Z" fill="#111010"/>
<path fill-rule="evenodd" clip-rule="evenodd" d="M258.397 227.327C256.791 217.868 256.498 208.23 257.526 198.69C257.54 198.526 257.522 198.361 257.474 198.206C257.424 198.05 257.342 197.905 257.234 197.781C257.129 197.655 256.997 197.555 256.851 197.481C256.704 197.408 256.543 197.366 256.38 197.356C256.216 197.347 256.051 197.369 255.897 197.425C255.742 197.481 255.601 197.566 255.48 197.675C255.358 197.787 255.261 197.922 255.193 198.07C255.126 198.221 255.087 198.382 255.083 198.545C255.083 206.445 253.553 215.398 255.198 224.868C255.384 225.912 255.706 226.908 255.979 227.924C256.007 228.094 256.068 228.258 256.163 228.402C256.255 228.547 256.378 228.671 256.522 228.766C256.665 228.86 256.828 228.925 256.997 228.955C257.168 228.985 257.342 228.977 257.509 228.936C257.676 228.896 257.833 228.82 257.971 228.714C258.106 228.608 258.219 228.476 258.303 228.324C258.386 228.174 258.436 228.007 258.451 227.835C258.466 227.662 258.453 227.49 258.397 227.327Z" fill="#111010"/>
<path fill-rule="evenodd" clip-rule="evenodd" d="M265.357 225.78C265.946 220.551 264.939 206.539 270.235 198.69C270.389 198.412 270.43 198.085 270.347 197.777C270.265 197.471 270.065 197.208 269.792 197.045C269.52 196.882 269.193 196.832 268.884 196.906C268.574 196.978 268.305 197.169 268.134 197.436C263.734 205.816 263.042 216.212 262.87 225.675C262.862 225.838 262.888 226.001 262.944 226.155C263 226.309 263.087 226.45 263.196 226.57C263.307 226.689 263.441 226.787 263.589 226.856C263.738 226.924 263.897 226.963 264.06 226.971C264.224 226.978 264.387 226.952 264.541 226.897C264.695 226.841 264.835 226.754 264.956 226.644C265.075 226.533 265.173 226.4 265.242 226.253C265.31 226.105 265.349 225.943 265.357 225.78Z" fill="#111010"/>
<path fill-rule="evenodd" clip-rule="evenodd" d="M271.276 227.538C272.683 220.404 274.08 210.055 278.879 203.813C279.06 203.546 279.129 203.216 279.068 202.897C279.007 202.578 278.823 202.298 278.554 202.115C278.285 201.933 277.957 201.864 277.638 201.926C277.319 201.987 277.037 202.172 276.856 202.439C272.756 209.18 270.087 216.69 269.019 224.506C268.882 225.433 268.876 226.346 268.793 227.243C268.769 227.408 268.776 227.577 268.819 227.738C268.859 227.902 268.934 228.052 269.034 228.185C269.136 228.319 269.262 228.428 269.407 228.512C269.553 228.595 269.713 228.647 269.878 228.667C270.044 228.686 270.211 228.673 270.373 228.627C270.532 228.58 270.682 228.501 270.812 228.397C270.942 228.291 271.048 228.159 271.126 228.013C271.205 227.865 271.261 227.705 271.276 227.538Z" fill="#111010"/>
<path fill-rule="evenodd" clip-rule="evenodd" d="M284.297 208.384C279.747 215.346 276.57 223.112 274.94 231.267C274.91 231.583 275.005 231.898 275.201 232.144C275.4 232.393 275.685 232.554 276.001 232.595C276.314 232.636 276.633 232.554 276.887 232.365C277.141 232.178 277.314 231.898 277.366 231.584C277.531 230.379 277.786 229.189 278.13 228.022C279.763 220.79 285.477 211.559 285.575 211.388C285.892 210.832 286.131 210.248 286.419 209.692C286.567 209.412 286.602 209.085 286.517 208.781C286.433 208.475 286.237 208.214 285.966 208.049C285.695 207.884 285.373 207.828 285.063 207.891C284.753 207.956 284.479 208.127 284.297 208.384Z" fill="#111010"/>
<path fill-rule="evenodd" clip-rule="evenodd" d="M291.457 217.656C288.898 219.694 286.834 222.285 285.419 225.233C283.047 230.259 281.599 235.67 281.145 241.207C280.868 245.266 281.555 251.803 279.29 256.329C277.456 260.003 274.417 261.382 270.426 262.354C270.113 262.436 269.844 262.64 269.679 262.918C269.516 263.198 269.47 263.532 269.551 263.845C269.633 264.158 269.835 264.427 270.115 264.592C270.395 264.755 270.729 264.802 271.042 264.72C273.132 264.216 275.099 263.298 276.828 262.018C278.558 260.739 280.012 259.126 281.104 257.273C283.262 253.314 283.563 248.231 283.932 242.787C284.225 238.455 283.657 234.841 286.691 228.438C288.336 225.139 290.502 222.123 293.104 219.511C293.339 219.29 293.48 218.984 293.497 218.661C293.512 218.339 293.4 218.022 293.187 217.779C292.972 217.536 292.672 217.385 292.349 217.36C292.026 217.334 291.707 217.45 291.457 217.656Z" fill="#111010"/>
<path fill-rule="evenodd" clip-rule="evenodd" d="M251.888 266.002C250.115 279.498 253.16 293.728 257.014 308.018C257.112 308.32 257.323 308.574 257.605 308.723C257.885 308.871 258.214 308.904 258.52 308.815C258.825 308.728 259.083 308.524 259.241 308.248C259.398 307.972 259.443 307.643 259.363 307.336C254.967 294.127 253.264 280.169 254.356 266.289C254.392 265.963 254.297 265.634 254.091 265.377C253.887 265.121 253.589 264.954 253.262 264.917C252.934 264.878 252.606 264.972 252.348 265.175C252.089 265.379 251.929 265.675 251.888 266.002Z" fill="#111010"/>
<path fill-rule="evenodd" clip-rule="evenodd" d="M280.863 260.515C285.549 269.738 288.592 274.04 290.057 280.825C290.155 281.128 290.367 281.38 290.648 281.53C290.928 281.679 291.257 281.712 291.563 281.623C291.869 281.534 292.126 281.33 292.284 281.054C292.442 280.777 292.486 280.451 292.406 280.143C291.325 277.248 287.976 266.439 282.99 259.22C282.817 258.938 282.541 258.736 282.22 258.658C281.898 258.58 281.56 258.634 281.278 258.807C280.995 258.977 280.792 259.255 280.716 259.576C280.639 259.897 280.69 260.233 280.863 260.515Z" fill="#111010"/>
<path fill-rule="evenodd" clip-rule="evenodd" d="M232.121 197.783C238.932 199.266 244.502 202.295 248.5 212.164C248.571 212.308 248.669 212.438 248.788 212.544C248.908 212.651 249.049 212.733 249.199 212.785C249.351 212.837 249.513 212.859 249.672 212.85C249.834 212.84 249.989 212.8 250.134 212.729C250.279 212.659 250.408 212.56 250.514 212.442C250.62 212.321 250.703 212.18 250.755 212.03C250.807 211.878 250.829 211.717 250.82 211.557C250.811 211.396 250.77 211.24 250.7 211.095C246.759 203.034 242.105 196.123 232.514 195.322C232.189 195.276 231.861 195.359 231.598 195.552C231.334 195.747 231.158 196.036 231.106 196.359C231.054 196.681 231.132 197.011 231.321 197.278C231.512 197.546 231.798 197.725 232.121 197.783Z" fill="#111010"/>
<path fill-rule="evenodd" clip-rule="evenodd" d="M186.536 175.698C182.004 181.726 181.652 192.448 187.527 200.848C189.222 203.407 191.439 205.579 194.032 207.222C196.624 208.865 199.534 209.942 202.571 210.382C207.58 211.305 212.754 210.472 217.221 208.026C219.689 206.812 222.074 205.436 224.36 203.904C224.612 203.715 224.783 203.435 224.835 203.123C224.885 202.812 224.813 202.493 224.635 202.232C224.455 201.972 224.18 201.792 223.871 201.729C223.563 201.666 223.24 201.725 222.973 201.894C220.624 203.674 218.137 205.263 215.533 206.645C211.667 208.57 207.252 209.085 203.046 208.101C197.731 206.706 192.994 203.669 189.509 199.42C187.861 197.234 186.704 194.718 186.117 192.042C185.53 189.368 185.528 186.597 186.11 183.921C186.443 181.527 187.275 179.228 188.552 177.175C188.655 177.044 188.73 176.893 188.773 176.732C188.817 176.571 188.827 176.402 188.804 176.237C188.781 176.072 188.725 175.912 188.639 175.769C188.553 175.626 188.439 175.501 188.304 175.403C188.169 175.304 188.016 175.234 187.854 175.196C187.691 175.158 187.522 175.153 187.358 175.181C187.193 175.21 187.036 175.271 186.896 175.361C186.755 175.452 186.63 175.56 186.536 175.698Z" fill="#111010"/>
<path fill-rule="evenodd" clip-rule="evenodd" d="M178.503 192.665C162.107 193.036 144.449 198.599 135.141 201.082C132.609 201.757 130.063 202.321 127.573 203.016C127.268 203.114 127.014 203.327 126.864 203.611C126.715 203.893 126.682 204.223 126.773 204.531C126.864 204.837 127.072 205.097 127.352 205.252C127.632 205.408 127.961 205.447 128.27 205.362C133.173 203.639 138.17 202.196 143.237 201.039C163.129 196.403 164.966 195.865 178.59 195.153C178.754 195.148 178.914 195.111 179.063 195.042C179.212 194.975 179.346 194.879 179.457 194.758C179.569 194.64 179.656 194.499 179.713 194.345C179.77 194.193 179.797 194.03 179.791 193.866C179.785 193.703 179.747 193.542 179.68 193.394C179.612 193.245 179.515 193.11 179.396 192.999C179.276 192.887 179.136 192.8 178.983 192.743C178.83 192.687 178.667 192.659 178.503 192.665Z" fill="#111010"/>
<path fill-rule="evenodd" clip-rule="evenodd" d="M214.374 215.077C219.52 220.935 224.23 226.889 229.524 243.92C230.96 248.435 231.883 253.097 232.275 257.816C232.295 257.976 232.349 258.13 232.428 258.269C232.508 258.408 232.616 258.528 232.744 258.627C232.872 258.725 233.016 258.796 233.172 258.836C233.328 258.879 233.489 258.888 233.649 258.868C233.806 258.846 233.96 258.794 234.099 258.714C234.238 258.632 234.361 258.527 234.457 258.399C234.555 258.271 234.626 258.126 234.669 257.97C234.709 257.815 234.719 257.653 234.698 257.494C234.363 255.246 232.627 247.573 232.582 247.38C229.615 234.499 225.139 222.936 216.216 213.399C215.991 213.165 215.683 213.028 215.359 213.017C215.034 213.007 214.717 213.122 214.478 213.341C214.237 213.56 214.092 213.864 214.074 214.189C214.053 214.513 214.163 214.832 214.374 215.077Z" fill="#111010"/>
<path fill-rule="evenodd" clip-rule="evenodd" d="M238.68 254.028C234.926 260.889 226.956 275.37 221.063 281.011C220.942 281.126 220.848 281.265 220.783 281.419C220.718 281.571 220.687 281.736 220.687 281.903C220.688 282.068 220.724 282.233 220.79 282.385C220.857 282.537 220.954 282.674 221.076 282.787C221.196 282.902 221.339 282.99 221.497 283.045C221.653 283.103 221.82 283.125 221.985 283.116C222.151 283.106 222.313 283.062 222.461 282.988C222.61 282.912 222.741 282.808 222.849 282.68C228.835 275.989 237.639 263.12 240.934 255.094C241.068 254.797 241.079 254.46 240.968 254.154C240.855 253.848 240.628 253.6 240.334 253.459C240.041 253.318 239.703 253.299 239.395 253.405C239.086 253.511 238.826 253.737 238.68 254.028Z" fill="#111010"/>
<path fill-rule="evenodd" clip-rule="evenodd" d="M226.782 282.315C232.221 293.738 246.711 306.34 251.019 308.68C251.306 308.817 251.636 308.838 251.936 308.736C252.239 308.634 252.489 308.419 252.634 308.135C252.778 307.851 252.808 307.521 252.713 307.217C252.621 306.913 252.411 306.657 252.131 306.505C244.402 302.755 233.233 289.191 229.007 281.208C228.937 281.057 228.837 280.924 228.712 280.813C228.59 280.701 228.445 280.616 228.289 280.562C228.132 280.508 227.967 280.486 227.8 280.497C227.635 280.507 227.474 280.551 227.325 280.625C227.177 280.699 227.045 280.803 226.938 280.929C226.828 281.054 226.747 281.2 226.697 281.358C226.646 281.517 226.628 281.682 226.643 281.847C226.658 282.012 226.704 282.168 226.782 282.315Z" fill="#111010"/>
<path fill-rule="evenodd" clip-rule="evenodd" d="M256.328 273.612C268.036 276.831 278.141 271.494 285.77 267.678C286.051 267.518 286.259 267.253 286.344 266.942C286.432 266.628 286.391 266.295 286.231 266.013C286.07 265.731 285.805 265.523 285.493 265.438C285.18 265.351 284.846 265.392 284.564 265.551C280.575 268.301 276.071 270.218 271.324 271.188C266.577 272.158 261.683 272.16 256.934 271.194C256.624 271.14 256.305 271.205 256.04 271.376C255.777 271.548 255.586 271.813 255.51 272.117C255.432 272.423 255.475 272.746 255.627 273.022C255.779 273.299 256.029 273.514 256.328 273.612Z" fill="#111010"/>
<path fill-rule="evenodd" clip-rule="evenodd" d="M94.7504 206.715C95.2203 206.94 95.6345 207.266 95.9631 207.672C96.2917 208.077 96.5265 208.548 96.6507 209.054C96.7748 209.56 96.7852 210.087 96.6811 210.598C96.5769 211.108 96.3609 211.589 96.0484 212.006C94.8876 214.192 86.3278 221.628 77.1653 225.791C76.8703 225.927 76.6411 226.173 76.528 226.477C76.4151 226.782 76.4275 227.119 76.5627 227.414C76.698 227.709 76.9449 227.939 77.2492 228.052C77.5535 228.165 77.8902 228.152 78.1852 228.017C89.3356 222.552 94.1904 219.943 98.0104 213.345C100.278 209.427 99.7813 205.955 95.7721 204.444C95.6229 204.377 95.4617 204.34 95.298 204.334C95.1342 204.329 94.971 204.357 94.8179 204.414C94.6645 204.472 94.5243 204.561 94.4051 204.672C94.286 204.785 94.1902 204.92 94.1232 205.069C94.0563 205.219 94.0196 205.38 94.0153 205.543C94.0109 205.708 94.0389 205.872 94.0976 206.024C94.1564 206.178 94.2449 206.317 94.3578 206.435C94.4707 206.554 94.6005 206.649 94.7504 206.715Z" fill="#111010"/>
<path fill-rule="evenodd" clip-rule="evenodd" d="M97.7786 217.586C97.4758 218.339 97.1316 219.075 96.7475 219.789C92.8626 227.625 82.2333 233.468 77.1487 234.976C76.8273 235.019 76.5356 235.186 76.3379 235.442C76.1402 235.699 76.0527 236.024 76.0944 236.345C76.1364 236.667 76.304 236.958 76.5608 237.157C76.8176 237.353 77.1425 237.442 77.4639 237.4C81.8569 236.552 94.9785 229.947 99.2602 221.015C99.6559 220.147 99.9586 219.238 100.163 218.307C100.216 218.149 100.236 217.983 100.223 217.816C100.209 217.651 100.163 217.489 100.087 217.341C100.01 217.194 99.9044 217.063 99.7763 216.957C99.6483 216.85 99.5004 216.772 99.3411 216.723C99.182 216.675 99.0147 216.659 98.8491 216.677C98.6837 216.694 98.5235 216.744 98.3779 216.825C98.2322 216.905 98.1042 217.015 98.0013 217.144C97.8984 217.276 97.8227 217.424 97.7786 217.586Z" fill="#111010"/>
<path fill-rule="evenodd" clip-rule="evenodd" d="M98.0458 226.796C96.0262 230.659 93.2285 234.062 89.8289 236.79C86.4292 239.517 82.5015 241.513 78.293 242.648C77.9948 242.755 77.7496 242.974 77.6094 243.258C77.4691 243.541 77.4442 243.87 77.5403 244.17C77.6365 244.472 77.8459 244.725 78.1246 244.877C78.4031 245.027 78.7295 245.064 79.0347 244.979C88.008 241.546 96.7292 236.697 100.33 227.79C100.452 227.49 100.451 227.153 100.329 226.852C100.206 226.552 99.9702 226.311 99.6722 226.181C99.3742 226.051 99.0375 226.044 98.7337 226.159C98.4298 226.274 98.183 226.502 98.0458 226.796Z" fill="#111010"/>
<path fill-rule="evenodd" clip-rule="evenodd" d="M97.1629 236.439C96.9059 237.142 96.596 237.824 96.2357 238.479C93.495 243.957 81.6696 251.15 76.5274 251.973C76.3709 252.009 76.2228 252.075 76.0917 252.168C75.9605 252.261 75.8489 252.378 75.7631 252.513C75.6774 252.648 75.6192 252.8 75.5919 252.958C75.5646 253.117 75.5687 253.279 75.6039 253.435C75.6394 253.592 75.705 253.741 75.7977 253.87C75.8903 254.002 76.0077 254.113 76.1434 254.2C76.2791 254.286 76.4303 254.343 76.5884 254.371C76.7466 254.399 76.9087 254.393 77.0652 254.358C79.322 253.687 94.6818 248.265 98.7465 239.708C99.1302 238.865 99.4056 237.976 99.5662 237.062C99.6072 236.905 99.6164 236.74 99.5936 236.578C99.5708 236.415 99.5165 236.259 99.4334 236.12C99.3505 235.979 99.2406 235.855 99.11 235.757C98.9795 235.658 98.8307 235.586 98.6724 235.545C98.5142 235.505 98.3493 235.495 98.1875 235.519C98.0256 235.542 97.8698 235.595 97.7289 235.679C97.5879 235.762 97.4648 235.872 97.3665 236.002C97.2681 236.133 97.2039 236.282 97.1629 236.439Z" fill="#111010"/>
<path fill-rule="evenodd" clip-rule="evenodd" d="M105.815 257.633C108.304 248.101 111.675 238.82 115.885 229.914C116.756 227.948 117.567 225.949 118.516 224.006C118.601 223.859 118.655 223.696 118.674 223.527C118.694 223.358 118.679 223.188 118.63 223.025C118.581 222.861 118.499 222.711 118.39 222.581C118.281 222.452 118.146 222.344 117.994 222.268C117.842 222.192 117.676 222.149 117.506 222.14C117.337 222.129 117.167 222.155 117.008 222.214C116.848 222.272 116.702 222.363 116.579 222.479C116.456 222.596 116.358 222.737 116.291 222.893C111.978 231.297 110.767 234.149 104.794 252.127C103.816 255.072 103.297 256.309 102.626 258.456C103.067 258.096 103.58 257.839 104.131 257.696C104.681 257.553 105.256 257.533 105.815 257.633Z" fill="#111010"/>
<path fill-rule="evenodd" clip-rule="evenodd" d="M94.07 289.357C93.0532 292.985 92.3247 296.686 91.8911 300.426C91.8805 300.742 91.9924 301.049 92.203 301.283C92.4135 301.518 92.7068 301.663 93.0215 301.687C93.336 301.711 93.6477 301.613 93.8916 301.413C94.1353 301.213 94.2921 300.925 94.3296 300.612C94.5095 297.743 94.898 294.893 95.4923 292.082C94.9249 290.924 94.4093 289.942 94.07 289.357Z" fill="#111010"/>
<path fill-rule="evenodd" clip-rule="evenodd" d="M267.828 313.629C266.697 313.312 265.507 313.275 264.359 313.526C263.211 313.774 262.141 314.301 261.244 315.059C256.137 318.798 256.342 324.418 256.185 330.857C256.194 331.018 256.235 331.174 256.305 331.318C256.374 331.463 256.472 331.593 256.591 331.698C256.711 331.806 256.851 331.888 257.003 331.941C257.155 331.993 257.314 332.017 257.475 332.008C257.635 331.999 257.793 331.958 257.937 331.888C258.08 331.819 258.21 331.721 258.317 331.6C258.425 331.481 258.507 331.341 258.558 331.19C258.612 331.038 258.634 330.879 258.625 330.717C257.748 324.403 260.748 318.28 262.616 316.995C264.14 316.311 265.805 316.001 267.472 316.092C267.636 316.118 267.803 316.112 267.964 316.073C268.125 316.035 268.277 315.964 268.411 315.868C268.542 315.769 268.656 315.645 268.741 315.504C268.826 315.361 268.882 315.204 268.906 315.041C268.93 314.876 268.921 314.71 268.878 314.549C268.837 314.39 268.765 314.239 268.665 314.108C268.563 313.976 268.439 313.865 268.294 313.783C268.151 313.7 267.994 313.65 267.828 313.629Z" fill="#111010"/>
<path fill-rule="evenodd" clip-rule="evenodd" d="M260.04 312.216C258.831 311.63 257.475 311.412 256.144 311.586C254.811 311.762 253.559 312.324 252.543 313.205C248.018 316.567 246.548 321.833 246.186 330.636C246.197 330.96 246.334 331.266 246.572 331.489C246.807 331.71 247.123 331.83 247.447 331.819C247.772 331.808 248.078 331.671 248.3 331.433C248.521 331.198 248.641 330.883 248.63 330.558C248.51 329.573 248.474 328.581 248.523 327.591C248.615 326.078 250.627 313.793 257.576 314.367C258.137 314.392 258.696 314.462 259.245 314.579C259.558 314.685 259.899 314.662 260.196 314.516C260.491 314.369 260.717 314.112 260.823 313.798C260.928 313.485 260.906 313.144 260.76 312.847C260.613 312.552 260.353 312.322 260.04 312.216Z" fill="#111010"/>
<path fill-rule="evenodd" clip-rule="evenodd" d="M248.53 312.341C247.486 312.261 246.436 312.394 245.444 312.73C244.454 313.068 243.54 313.602 242.761 314.301C237.927 318.009 238.001 322.616 237.969 330.508C237.975 330.673 238.012 330.834 238.082 330.983C238.151 331.133 238.249 331.266 238.372 331.378C238.494 331.487 238.637 331.572 238.793 331.626C238.947 331.68 239.112 331.702 239.277 331.691C239.44 331.68 239.601 331.635 239.748 331.561C239.894 331.487 240.024 331.383 240.13 331.257C240.235 331.131 240.315 330.985 240.363 330.827C240.412 330.669 240.426 330.504 240.41 330.341C239.401 323.589 241.337 315.858 248.647 314.827C248.977 314.813 249.287 314.666 249.509 314.421C249.732 314.178 249.847 313.856 249.832 313.526C249.817 313.195 249.67 312.886 249.426 312.663C249.183 312.441 248.86 312.326 248.53 312.341Z" fill="#111010"/>
<path fill-rule="evenodd" clip-rule="evenodd" d="M238.407 313.157C231.325 314.545 228.786 323.511 229.981 329.59C229.994 329.749 230.038 329.905 230.112 330.048C230.185 330.191 230.287 330.319 230.409 330.423C230.531 330.526 230.672 330.604 230.826 330.653C230.978 330.703 231.14 330.721 231.299 330.708C231.459 330.695 231.614 330.651 231.757 330.577C231.9 330.504 232.028 330.402 232.132 330.28C232.236 330.157 232.313 330.017 232.364 329.863C232.412 329.711 232.43 329.549 232.417 329.39C231.399 323.743 233.246 318.1 239.147 315.536C239.455 315.432 239.711 315.211 239.859 314.922C240.005 314.631 240.035 314.295 239.939 313.985C239.842 313.674 239.627 313.414 239.342 313.259C239.056 313.105 238.72 313.068 238.407 313.157Z" fill="#111010"/>
<path fill-rule="evenodd" clip-rule="evenodd" d="M127.636 279.17C128.323 281.552 128.868 283.972 129.27 286.42C131.042 292.694 131.378 299.286 130.251 305.706C130.047 307.315 129.88 308.923 129.553 310.51C129.482 310.833 129.541 311.17 129.718 311.451C129.896 311.729 130.177 311.925 130.499 311.998C130.822 312.07 131.16 312.011 131.439 311.833C131.718 311.654 131.915 311.374 131.986 311.052C132.309 309.73 132.667 308.417 132.88 307.074C133.612 299.981 133.344 292.821 132.085 285.803C131.405 282.583 130.366 279.451 128.988 276.464C127.59 274.205 125.572 274.424 124.593 277.805C123.747 280.733 124.068 285.328 124.192 290.693C124.196 290.852 124.231 291.012 124.295 291.158C124.36 291.305 124.453 291.438 124.569 291.549C124.685 291.661 124.821 291.748 124.971 291.805C125.12 291.865 125.28 291.892 125.44 291.889C125.601 291.885 125.759 291.85 125.906 291.785C126.053 291.722 126.186 291.627 126.297 291.512C126.408 291.395 126.495 291.26 126.553 291.11C126.612 290.962 126.64 290.8 126.637 290.641C126.266 286.747 125.505 281.758 126.581 278.402C127.013 277.065 127.161 277.695 127.636 279.17Z" fill="#111010"/>
<path fill-rule="evenodd" clip-rule="evenodd" d="M123.171 294.887C121.154 295.503 119.351 296.675 117.969 298.268C116.587 299.861 115.682 301.81 115.358 303.894C115.279 304.209 115.328 304.541 115.495 304.819C115.662 305.097 115.932 305.3 116.246 305.377C116.561 305.457 116.894 305.407 117.172 305.24C117.45 305.073 117.651 304.804 117.73 304.489C118.182 300.361 120.834 299.354 124.146 297.179C124.302 297.12 124.444 297.027 124.564 296.912C124.684 296.795 124.779 296.656 124.844 296.502C124.909 296.348 124.942 296.183 124.942 296.017C124.942 295.848 124.908 295.683 124.843 295.529C124.777 295.375 124.682 295.236 124.561 295.121C124.441 295.004 124.299 294.913 124.143 294.854C123.987 294.795 123.82 294.767 123.653 294.772C123.486 294.778 123.322 294.817 123.171 294.887Z" fill="#111010"/>
<path fill-rule="evenodd" clip-rule="evenodd" d="M121.422 287.679C119.677 273.903 117.746 268.874 114.55 261.939C114.473 261.798 114.37 261.674 114.246 261.572C114.121 261.47 113.978 261.395 113.824 261.349C113.67 261.303 113.509 261.288 113.349 261.305C113.19 261.319 113.035 261.368 112.894 261.444C112.752 261.52 112.627 261.623 112.526 261.748C112.425 261.872 112.349 262.017 112.303 262.169C112.257 262.323 112.242 262.484 112.258 262.643C112.275 262.805 112.322 262.959 112.398 263.1C117.034 270.591 118.286 285.167 118.46 286.094C118.588 286.78 118.796 287.442 118.97 288.117C119.028 288.443 119.213 288.731 119.484 288.92C119.755 289.109 120.09 289.183 120.415 289.124C120.74 289.066 121.029 288.881 121.217 288.61C121.406 288.339 121.48 288.006 121.422 287.679Z" fill="#111010"/>
<path fill-rule="evenodd" clip-rule="evenodd" d="M115.655 286.93C115.451 285.983 115.349 285.009 115.137 284.047C112.855 273.671 111.876 268.366 106.55 260.047C106.456 259.917 106.337 259.806 106.201 259.723C106.064 259.637 105.912 259.582 105.754 259.556C105.595 259.53 105.434 259.535 105.277 259.573C105.121 259.61 104.974 259.676 104.844 259.771C104.714 259.866 104.603 259.984 104.519 260.12C104.434 260.257 104.378 260.409 104.352 260.566C104.327 260.726 104.332 260.887 104.369 261.043C104.406 261.199 104.474 261.347 104.567 261.477C110.169 268.405 112.541 285.185 112.58 285.38C112.753 286.109 113.009 286.806 113.233 287.512C113.27 287.672 113.338 287.824 113.434 287.956C113.53 288.089 113.651 288.202 113.791 288.289C113.93 288.375 114.086 288.432 114.248 288.458C114.41 288.484 114.575 288.479 114.735 288.44C115.056 288.36 115.333 288.156 115.505 287.874C115.677 287.59 115.731 287.253 115.655 286.93Z" fill="#111010"/>
<path fill-rule="evenodd" clip-rule="evenodd" d="M109.207 288.493C105.806 275.717 104.879 274.615 100.386 262.775C100.322 262.625 100.23 262.488 100.112 262.374C99.9957 262.261 99.8571 262.172 99.7051 262.113C99.5532 262.052 99.391 262.024 99.2278 262.028C99.0646 262.033 98.904 262.07 98.7555 262.137C98.6069 262.204 98.4732 262.3 98.3625 262.421C98.2518 262.541 98.1661 262.682 98.1107 262.834C98.0552 262.988 98.0311 263.151 98.0397 263.315C98.0482 263.478 98.0894 263.637 98.1606 263.784C100.606 270.875 103.065 279.175 106.819 289.189C106.86 289.35 106.934 289.502 107.036 289.636C107.137 289.767 107.265 289.879 107.41 289.96C107.555 290.044 107.716 290.096 107.882 290.116C108.048 290.134 108.216 290.12 108.376 290.073C108.536 290.025 108.685 289.947 108.815 289.841C108.944 289.736 109.051 289.604 109.128 289.458C109.206 289.309 109.253 289.146 109.267 288.981C109.281 288.814 109.259 288.653 109.207 288.493Z" fill="#111010"/>
<path fill-rule="evenodd" clip-rule="evenodd" d="M104.332 291.286C101.795 283.679 98.6464 276.29 94.9174 269.191C94.8349 269.054 94.7261 268.933 94.5972 268.837C94.4683 268.742 94.3218 268.672 94.1661 268.633C93.8516 268.553 93.5185 268.603 93.2402 268.77C92.9616 268.935 92.7608 269.206 92.6818 269.521C92.6026 269.835 92.6518 270.168 92.8183 270.447C96.6494 278.074 100.138 288.104 101.99 292.143C102.044 292.3 102.128 292.443 102.239 292.567C102.349 292.69 102.482 292.79 102.631 292.862C102.781 292.933 102.943 292.974 103.108 292.981C103.273 292.99 103.438 292.964 103.594 292.909C103.749 292.851 103.892 292.764 104.013 292.653C104.135 292.54 104.233 292.404 104.301 292.254C104.37 292.104 104.408 291.942 104.414 291.776C104.419 291.611 104.391 291.442 104.332 291.286Z" fill="#111010"/>
<path fill-rule="evenodd" clip-rule="evenodd" d="M90.3462 281.732C92.3195 284.514 94.1256 287.41 95.7554 290.405C98.6112 296.302 98.7892 300.771 105.521 311.432C106.566 313.188 107.753 314.855 109.072 316.417C109.295 316.643 109.596 316.773 109.913 316.78C110.231 316.789 110.538 316.672 110.772 316.459C111.005 316.244 111.146 315.947 111.165 315.63C111.184 315.313 111.079 315.002 110.872 314.761C103.826 307.412 105.7 306.251 97.7971 289.202C94.8598 282.869 94.3758 282.593 92.2729 280.152C92.061 279.906 91.7606 279.752 91.436 279.722C91.1117 279.694 90.789 279.794 90.5372 280C90.2854 280.208 90.1244 280.505 90.0888 280.827C90.0531 281.152 90.1456 281.476 90.3462 281.732Z" fill="#111010"/>
<path fill-rule="evenodd" clip-rule="evenodd" d="M179.955 288.825C179.251 293.224 178.411 296.881 178.329 299.167C178.242 301.557 179.247 302.027 180.072 301.62C181.709 301.051 182.924 300.322 184.995 299.581C185.291 299.443 185.519 299.195 185.631 298.891C185.743 298.585 185.729 298.247 185.592 297.953C185.456 297.658 185.208 297.43 184.902 297.316C184.597 297.205 184.26 297.218 183.964 297.355C182.911 297.71 181.903 298.188 180.964 298.781C181.646 295.529 182.142 292.241 182.447 288.931C182.455 288.768 182.43 288.605 182.375 288.451C182.319 288.297 182.233 288.156 182.123 288.035C182.013 287.915 181.88 287.817 181.732 287.748C181.584 287.677 181.424 287.638 181.261 287.631C181.097 287.624 180.934 287.648 180.781 287.703C180.627 287.759 180.486 287.844 180.365 287.956C180.244 288.065 180.146 288.198 180.077 288.347C180.008 288.495 179.963 288.662 179.955 288.825Z" fill="#111010"/>
<path fill-rule="evenodd" clip-rule="evenodd" d="M175.946 307.792C181.311 311.501 187.777 307.951 190.383 304.103C190.485 303.979 190.562 303.836 190.609 303.684C190.657 303.53 190.674 303.369 190.659 303.21C190.644 303.05 190.598 302.894 190.523 302.752C190.448 302.611 190.346 302.485 190.222 302.381C190.098 302.279 189.956 302.203 189.802 302.155C189.649 302.106 189.488 302.09 189.328 302.104C189.168 302.119 189.013 302.166 188.871 302.242C188.729 302.316 188.603 302.418 188.5 302.542C186.192 306.125 182.466 307.44 177.072 305.57C176.926 305.496 176.766 305.452 176.603 305.44C176.44 305.428 176.276 305.448 176.12 305.498C175.965 305.55 175.821 305.63 175.696 305.737C175.572 305.845 175.47 305.975 175.396 306.119C175.322 306.266 175.278 306.425 175.266 306.588C175.253 306.752 175.273 306.917 175.324 307.072C175.375 307.228 175.456 307.371 175.563 307.495C175.67 307.619 175.8 307.718 175.946 307.792Z" fill="#111010"/>
<path d="M170.099 292.671C169.771 292.671 169.453 292.553 169.202 292.341C168.952 292.128 168.785 291.833 168.731 291.509L168.004 287.149C167.969 286.967 167.97 286.778 168.008 286.596C168.046 286.415 168.121 286.244 168.227 286.09C168.333 285.938 168.468 285.808 168.625 285.708C168.782 285.61 168.957 285.543 169.14 285.512C169.323 285.482 169.511 285.487 169.691 285.53C169.872 285.575 170.042 285.652 170.192 285.762C170.342 285.873 170.468 286.01 170.563 286.17C170.658 286.329 170.721 286.507 170.747 286.691L171.473 291.051C171.507 291.251 171.496 291.455 171.443 291.649C171.389 291.844 171.293 292.026 171.162 292.18C171.032 292.334 170.869 292.458 170.685 292.543C170.502 292.629 170.302 292.671 170.099 292.671Z" fill="#111010"/>
<path d="M191.221 293.129C191.022 293.129 190.826 293.087 190.645 293.005C190.464 292.923 190.303 292.803 190.172 292.653C190.041 292.504 189.944 292.328 189.887 292.137C189.83 291.946 189.814 291.746 189.841 291.549L190.397 287.509C190.447 287.143 190.639 286.811 190.932 286.589C191.226 286.364 191.596 286.266 191.962 286.316C192.327 286.365 192.658 286.557 192.882 286.85C193.106 287.143 193.204 287.514 193.155 287.88L192.599 291.92C192.555 292.256 192.391 292.562 192.137 292.784C191.884 293.007 191.558 293.129 191.221 293.129Z" fill="#111010"/>
<path fill-rule="evenodd" clip-rule="evenodd" d="M226.626 305.491C224.933 297.849 218.281 292.159 218.704 287.522C220.824 265.173 204.542 245.95 189.804 246.355C182.768 246.56 178.813 254.388 173.448 253.429C171.683 252.93 169.893 252.524 168.085 252.212C165.25 251.992 162.399 252.315 159.685 253.162C152.824 255.35 147.225 261.562 144.136 267.478C139.152 277.022 140.387 284.812 139.521 293.011C139.405 296.515 138.291 299.913 136.311 302.805C132.728 309.159 134.799 311.857 138.679 317.978C139.252 318.905 161.602 317.978 168.202 317.733C174.651 320.402 181.797 320.889 188.548 319.12C216.353 317.978 224.733 318.219 225.265 317.422C228.566 312.252 227.507 309.464 226.626 305.491ZM155.066 301.201C150.986 300.067 149.72 292.616 156.935 291.232C156.682 294.607 156.786 297.997 157.245 301.35C156.515 301.42 155.78 301.37 155.066 301.201ZM195.582 313.157C191.977 316.059 185.878 317.323 179.805 317.275C172.28 317.212 164.373 315.339 161.415 308.391C159.129 303.028 159.19 292.087 160.508 285.361C151.248 284.601 148.64 273.284 157.2 265.566C157.444 265.347 157.764 265.234 158.09 265.249C158.417 265.265 158.725 265.408 158.947 265.647C159.169 265.889 159.288 266.207 159.277 266.534C159.267 266.86 159.128 267.17 158.891 267.396C152.216 273.716 153.371 284.482 163.199 282.819C166.242 282.303 168.052 276.195 172.604 276.9C181.361 278.255 195.298 288.076 203.252 278.669C203.463 278.422 203.765 278.272 204.09 278.248C204.413 278.224 204.733 278.33 204.98 278.543C205.225 278.754 205.377 279.055 205.401 279.379C205.425 279.704 205.317 280.023 205.106 280.269C204.071 281.449 202.827 282.428 201.438 283.156C201.698 288.957 203.042 307.076 195.582 313.157ZM202.875 302.216C203.422 298.551 203.717 294.852 203.758 291.147C210.79 292.265 211.162 300.627 202.875 302.216Z" fill="#111010"/>
<path d="M21.3114 176.087C21.1288 176.089 20.9475 176.055 20.7779 175.987C20.6084 175.919 20.4538 175.818 20.3231 175.691C20.1924 175.563 20.0881 175.411 20.0162 175.243C19.9443 175.075 19.9062 174.895 19.904 174.712C19.9018 174.53 19.9356 174.348 20.0035 174.179C20.0713 174.009 20.1719 173.855 20.2995 173.724C20.4271 173.593 20.5792 173.489 20.7471 173.417C20.915 173.345 21.0954 173.307 21.2781 173.305L57.5273 172.378C57.8962 172.368 58.2539 172.505 58.5215 172.759C58.789 173.013 58.9448 173.363 58.9543 173.732C58.9639 174.101 58.8265 174.459 58.5725 174.726C58.3186 174.994 57.9685 175.149 57.5997 175.159L21.3114 176.087Z" fill="#111010"/>
<path d="M64.6296 151.963C64.2402 151.963 64.5869 152.035 19.9188 135.913C19.5719 135.788 19.2888 135.53 19.132 135.196C18.9752 134.862 18.9574 134.48 19.0825 134.133C19.2077 133.786 19.4656 133.503 19.7994 133.346C20.1333 133.189 20.5157 133.172 20.8627 133.297L65.1099 149.265C65.4179 149.376 65.6766 149.593 65.8401 149.877C66.0039 150.161 66.0621 150.493 66.0048 150.816C65.9473 151.138 65.778 151.43 65.5264 151.64C65.2747 151.85 64.9573 151.964 64.6296 151.963Z" fill="#111010"/>
<path d="M27.4661 214.949C27.1542 214.947 26.8517 214.841 26.6073 214.647C26.3627 214.454 26.1903 214.183 26.1177 213.881C26.045 213.577 26.0762 213.258 26.2064 212.974C26.3366 212.69 26.5582 212.46 26.8356 212.318L60.168 195.42C60.331 195.337 60.509 195.285 60.6916 195.27C60.8745 195.255 61.0583 195.278 61.2326 195.333C61.4069 195.391 61.5684 195.482 61.7077 195.6C61.8469 195.719 61.9613 195.865 62.0442 196.029C62.1271 196.192 62.1768 196.37 62.1905 196.553C62.2043 196.735 62.1816 196.919 62.1241 197.093C62.0667 197.267 61.9752 197.429 61.8553 197.568C61.7353 197.705 61.5892 197.82 61.4252 197.902C27.531 215.086 27.9723 214.949 27.4661 214.949Z" fill="#111010"/>
<path d="M365.68 166.236L329.392 165.309C329.023 165.299 328.672 165.143 328.418 164.876C328.164 164.609 328.027 164.251 328.036 163.883C328.034 163.698 328.072 163.516 328.144 163.346C328.216 163.176 328.322 163.023 328.455 162.897C328.589 162.769 328.748 162.671 328.921 162.608C329.093 162.545 329.279 162.518 329.462 162.529L365.713 163.456C365.895 163.458 366.077 163.496 366.244 163.568C366.413 163.64 366.565 163.745 366.693 163.875C366.819 164.006 366.921 164.16 366.987 164.33C367.056 164.5 367.089 164.681 367.088 164.864C367.086 165.046 367.047 165.227 366.974 165.395C366.904 165.563 366.798 165.715 366.669 165.842C366.537 165.97 366.383 166.07 366.214 166.138C366.044 166.206 365.862 166.238 365.68 166.236Z" fill="#111010"/>
<path d="M322.362 142.113C322.036 142.111 321.72 141.995 321.47 141.784C321.222 141.573 321.053 141.282 320.997 140.96C320.942 140.638 320.999 140.307 321.162 140.024C321.325 139.742 321.583 139.525 321.889 139.413L366.129 123.445C366.476 123.319 366.858 123.337 367.191 123.494C367.525 123.651 367.785 123.934 367.909 124.281C368.035 124.628 368.017 125.01 367.859 125.344C367.703 125.678 367.42 125.936 367.073 126.061C322.405 142.183 322.746 142.113 322.362 142.113Z" fill="#111010"/>
<path d="M359.535 205.098C359.019 205.098 359.457 205.232 325.574 188.051C325.409 187.97 325.264 187.855 325.143 187.717C325.023 187.578 324.932 187.417 324.875 187.243C324.817 187.068 324.795 186.885 324.808 186.703C324.823 186.519 324.871 186.341 324.954 186.178C325.038 186.015 325.151 185.869 325.292 185.75C325.431 185.631 325.592 185.54 325.767 185.483C325.941 185.427 326.124 185.405 326.306 185.42C326.49 185.435 326.668 185.487 326.831 185.57L360.163 202.467C360.44 202.61 360.662 202.84 360.792 203.124C360.922 203.407 360.953 203.726 360.881 204.028C360.809 204.333 360.636 204.601 360.393 204.796C360.149 204.989 359.846 205.097 359.535 205.098Z" fill="#111010"/>
</svg>
